<svg width="700" height="700" viewBox="0 0 700 700" fill="none" xmlns="http://www.w3.org/2000/svg">
<path d="M406.5 193C344.368 193 294 243.144 294 305C294 366.856 344.368 417 406.5 417C468.632 417 519 366.856 519 305C519 243.144 468.632 193 406.5 193Z" fill="#2EE52E"/>
<path d="M244.615 304.491C244.615 233.805 289.896 173.689 353.059 151.553C357.173 150.112 356.196 144.004 351.836 144C351.755 144 351.672 144 351.591 144C237.498 144 145 236.446 145 350.498C144.998 464.643 237.231 556.908 351.418 557C453.079 557.083 537.631 483.746 554.931 387.105C555.699 382.822 549.872 380.769 547.719 384.55C520.138 432.981 468.291 465.819 408.735 466.54C318.875 467.626 244.615 394.325 244.615 304.491Z" fill="#2EE52E"/>
</svg>
