<svg width="1800" height="1800" viewBox="0 0 1800 1800" fill="none" xmlns="http://www.w3.org/2000/svg">
<path d="M814.537 687.28C814.537 645.288 841.426 609.576 878.936 596.425C881.378 595.569 880.798 591.941 878.209 591.939C878.161 591.939 878.112 591.939 878.064 591.939C810.31 591.939 755.381 646.857 755.381 714.611C755.38 782.42 810.152 837.231 877.961 837.285C938.332 837.335 988.542 793.768 998.816 736.357C999.272 733.813 995.812 732.593 994.533 734.84C978.154 763.611 947.365 783.119 911.998 783.547C858.636 784.192 814.537 740.647 814.537 687.28Z" fill="#2EE52E"/>
<path d="M910.858 617.474C872.21 617.474 840.879 648.804 840.879 687.452C840.879 726.1 872.21 757.431 910.858 757.431C949.506 757.431 980.836 726.1 980.836 687.452C980.836 648.804 949.506 617.474 910.858 617.474Z" fill="#2EE52E"/>
<path d="M429.609 537.824C477.176 572.443 499.776 570.38 535.942 595.517C571.682 620.351 607.734 666.387 617.244 723.073C617.357 723.748 618.241 723.929 618.593 723.34C625.024 712.691 660.725 657.439 697.765 677.949C724.392 692.692 736.068 709.416 742.578 723.312C742.757 723.692 743.321 723.541 743.294 723.121C743.118 720.3 743.033 717.46 743.033 714.609C743.033 708.139 743.492 701.771 744.374 695.54C744.457 694.959 744.336 694.367 744.02 693.872C733.437 677.381 716.269 664.624 704.425 658.065C672.03 640.129 638.77 666.531 629.318 675.032C628.72 675.564 627.78 675.375 627.437 674.643C624.264 667.851 614.517 649.107 601.664 629.869C586.282 606.851 560.292 581.524 537.709 564.861C537.273 564.528 537.557 563.835 538.1 563.929C554.429 566.609 587.509 570.172 604.381 570.637C625.5 571.227 673.465 564.776 681.738 563.636C682.442 563.54 683.126 563.929 683.401 564.585C685.777 570.248 698.041 596.079 730.958 614.308C748.249 623.875 765.092 625.404 776.084 625.015C776.274 625.005 776.454 624.92 776.577 624.777C785.517 614.784 795.929 606.129 807.453 599.137C808.089 598.757 807.785 597.788 807.044 597.825C800.594 598.187 785.08 597.901 769.177 589.096C748.913 577.876 713.868 533.084 727.244 503.111C727.538 502.436 726.806 501.781 726.18 502.171C698.488 519.527 633.545 520.344 558.638 481.347C448.59 424.08 332.766 300.153 339.512 195.843C339.558 195.045 338.533 194.684 338.077 195.34C285.75 271.025 361.276 488.092 429.609 537.824Z" fill="#2EE52E"/>
<path d="M1571.35 444.411C1516.19 361.979 1299.13 343.815 1226.34 386.927C1175.72 416.908 1168.67 438.473 1131.28 461.739C1095.44 484.029 1055.84 496.213 993.518 489.999C992.071 489.853 991.093 491.432 991.861 492.665C1002.02 509.001 1020.26 550.676 990.526 573.659C979.842 581.929 957.115 589.048 926.311 588.5C926.026 588.495 925.945 588.877 926.211 588.981C938.81 593.916 950.481 600.691 960.911 608.983C961.363 609.343 961.945 609.501 962.515 609.411C980.615 606.535 997.151 599.512 1007.13 591.708C1038.63 567.084 1027.17 526.681 1023.18 515.053C1022.95 514.416 1023.42 513.751 1024.09 513.741C1031.14 513.637 1050.71 512.735 1073.71 508.497C1100.62 503.539 1132.06 489.992 1156.11 476.027C1156.8 475.628 1157.56 476.407 1157.15 477.091C1148.31 491.312 1134 519.423 1127.02 534.433C1118.62 552.531 1105.83 595.575 1102.55 607.117C1102.27 608.124 1101.34 608.808 1100.3 608.799C1091.31 608.732 1062.56 609.349 1035.02 630.659C1020.21 642.109 1009.74 656.441 1003.95 666.848C1003.68 667.32 1003.65 667.873 1003.84 668.38C1008.7 681.673 1011.53 695.929 1011.95 710.784C1011.96 711.125 1012.4 711.245 1012.57 710.945C1016.52 703.825 1025.22 690.535 1039.93 679.393C1063.48 661.552 1112.55 652.441 1135.85 673.721C1136.61 674.416 1137.82 673.817 1137.74 672.8C1134.99 639.703 1163.77 579.416 1227.13 527.773C1323.32 449.351 1472.74 401.68 1570.37 445.569C1571.1 445.893 1571.79 445.076 1571.35 444.411Z" fill="#2EE52E"/>
<path d="M1034.72 1082.81C1031.34 1127.65 1026.28 1170.8 1017.74 1210.27C984.219 1365.04 923.247 1489.24 879.291 1524.78C855.768 1505.76 827.364 1461.34 800.906 1400.43C800.707 1400.59 800.518 1400.74 800.318 1400.89C792.338 1406.99 783.436 1413.31 773.926 1419.25C814.14 1508.98 854.211 1548.54 879.291 1573.06C918.479 1534.74 994.26 1459.73 1050.03 1213.96C1054.75 1193.14 1058.88 1155.51 1062.53 1110.82C1051.41 1103.52 1041.92 1093.92 1034.72 1082.81Z" fill="#2EE52E"/>
<path d="M1339.84 660.886C1329.49 668.172 1316.67 667.795 1311.21 660.042C1305.75 652.287 1309.72 640.095 1320.06 632.808C1330.41 625.52 1343.23 625.899 1348.69 633.652C1354.15 641.406 1350.18 653.599 1339.84 660.886ZM1045.89 853.519C1043.17 897.968 1041.72 943.978 1039.83 989.644C1039.66 993.604 1039.5 997.566 1039.32 1001.52L1026.74 1000.49L976.384 971.594C985.838 958.768 997.076 946.766 1010.22 936.311C1010.76 935.883 1010.49 935.028 1009.8 935C1000.37 934.647 960.36 931.983 941.568 912.254L1046.35 846.191C1046.2 848.635 1046.04 851.078 1045.89 853.519ZM745.743 999.82L719.292 1002.24V1002.23C719.112 998.279 718.951 994.318 718.788 990.356C716.879 944.462 715.435 898.196 712.68 853.519C712.664 853.254 712.647 852.988 712.631 852.724L807.87 908.399C798.207 927.495 783.04 945.015 764.503 946.608C763.771 946.675 763.552 947.635 764.199 947.996C773 952.864 782.14 961.587 790.639 973.783L745.743 999.82ZM409.423 675.2C398.836 668.264 394.467 656.212 399.664 648.28C404.862 640.347 417.656 639.54 428.243 646.476C438.83 653.412 443.199 665.466 438.002 673.398C432.806 681.33 420.011 682.138 409.423 675.2ZM1514.89 525.035L1499.04 527.992C1449.59 537.212 1401.08 550.927 1354.12 568.966L1329.35 578.48C1327.89 579.039 1326.66 580.06 1325.85 581.387L1318.26 593.703C1311.58 604.551 1300.35 611.796 1287.72 613.414L1269.74 615.712C1269.08 615.798 1268.56 616.322 1268.48 616.986L1268.43 617.4C1266.81 630.89 1267.27 644.546 1269.76 657.899L1272.16 670.74L1083.39 788.716C1087.66 750.727 1094.08 716.911 1104.93 673.636C1090.89 672.192 1074.43 675.108 1060.97 680.942C1058.33 705.16 1053.1 755.436 1048.9 810.276L931.951 883.364C933.459 866.844 943.535 842.432 970.278 815.331C970.483 815.122 970.256 814.78 969.988 814.9C969.162 815.272 968.306 815.642 967.424 816.01C965.608 816.767 963.923 817.796 962.399 819.043C952.286 827.315 940.951 834.148 928.708 839.236C928.118 839.482 927.615 839.902 927.28 840.447C916.647 857.822 911.126 877.531 911.126 891.519C911.126 930.354 954.246 946.41 963.899 949.535C960.535 953.886 947.748 972.734 936.226 995.078C923.2 1020.34 913.472 1056.54 910.043 1084.7C904.96 1069.94 891.214 1037.08 883.091 1021.39C873.372 1002.63 844.502 963.794 839.496 957.106C839.068 956.536 839.078 955.748 839.524 955.187C843.324 950.371 859.987 927.134 859.987 889.504C859.987 871.631 854.404 857.266 849.158 847.711C848.711 846.899 847.944 846.318 847.04 846.111C833.964 843.131 821.338 838.191 809.988 831.694C809.751 831.558 809.495 831.826 809.647 832.052C811.954 835.482 819.423 848.14 819.423 868.272C819.423 871.943 818.862 876.35 817.792 881.175L710.302 818.528C706.575 768.176 701.846 720.724 698.848 692.446C696.739 691.068 694.47 689.7 692.018 688.342C680.836 682.148 669.047 686.547 658.692 694.431C667.384 731.735 672.648 762.94 676.247 798.68L477.388 682.782L479.358 669.868C481.407 656.438 481.398 642.775 479.332 629.347L479.268 628.935C479.167 628.275 478.63 627.768 477.966 627.706L459.924 626.01C447.239 624.816 435.774 617.951 428.734 607.332L420.74 595.279C419.88 593.98 418.616 593 417.144 592.491L392.068 583.811C344.532 567.355 295.592 555.274 245.86 547.715L229.915 545.291C229.208 545.183 228.731 545.994 229.167 546.56L239.014 559.339C269.715 599.184 303.99 636.146 341.41 669.762L361.15 687.496C362.308 688.536 363.779 689.168 365.331 689.292L379.75 690.446C392.45 691.462 404.008 698.167 411.196 708.687L421.419 723.648C421.795 724.199 422.499 724.424 423.126 724.194L423.519 724.048C429.45 721.863 435.2 719.247 440.748 716.255C442.807 722.998 445.992 737.914 438.52 749.386C438.372 749.612 438.115 749.752 437.844 749.755C419.648 749.996 401.887 747.536 371.271 787.798C346.146 820.839 347.075 855.035 348.288 866.603C348.382 867.491 349.631 867.591 349.87 866.73C353.315 854.248 366.106 815.344 396.592 793.106C406.616 785.792 417.863 781.516 423.627 779.63C424.463 779.355 425.064 780.424 424.404 781.007C414.171 790.044 382.632 823.256 393.724 881.358C393.886 882.202 395.079 882.258 395.303 881.427C396.994 875.126 401.371 862.084 409.726 856.588C410.398 856.147 411.246 856.855 410.918 857.59C404.954 870.962 400.051 896.014 395.938 943.895C395.926 944.031 395.883 944.16 395.808 944.272C382.198 965.056 339.398 1003 348.832 1088.54C355.502 1149.01 341.274 1201.86 337.775 1213.64C337.55 1214.4 338.439 1214.99 339.056 1214.49C344.666 1209.94 360.651 1195.77 371.36 1174.32C371.79 1173.46 373.107 1173.95 372.868 1174.88C362.268 1216.32 318.188 1280.47 306.031 1342.09C293.562 1405.29 306.48 1447.55 317.254 1468.79C317.602 1469.48 318.616 1469.34 318.764 1468.58C321.239 1455.9 334.703 1393.44 366.415 1355.71C383.496 1335.39 401.992 1300.49 407.666 1289.46C408.064 1288.68 409.236 1289 409.187 1289.87C408.118 1308.76 403.974 1392.64 411.292 1446.2C419.42 1505.69 429.654 1566.53 428.852 1605.1C428.836 1605.87 429.795 1606.23 430.282 1605.63C438.3 1595.75 476.14 1541.52 481.035 1393.04C482.734 1341.52 467.46 1276.81 463.57 1261.27C463.363 1260.44 464.412 1259.9 464.967 1260.55C468.847 1265.08 476.934 1273.92 483.382 1276.94C484.116 1277.29 484.842 1276.45 484.403 1275.77C469.287 1252.21 472.711 1236.11 482.547 1170.78C488.471 1131.44 472.392 1099.67 470.452 1096.02C470.334 1095.8 470.327 1095.55 470.434 1095.32C471.87 1092.25 481.876 1069.05 483.652 1015.15C484.19 998.85 483.97 982.004 483.834 974.862C483.818 974 484.98 973.719 485.363 974.491C490.468 984.79 505.778 1017.6 502.371 1034.16C502.188 1035.05 503.351 1035.53 503.842 1034.77C512.952 1020.6 516.266 969.219 505.13 933.558C493.204 895.37 480.392 870.97 488.176 852.158C488.383 851.656 489.039 851.504 489.451 851.859C498.638 859.795 501.698 870.58 502.612 875.052C502.763 875.784 503.738 875.948 504.104 875.298C506.902 870.335 513.544 855.288 508.979 830.358C503.372 799.736 488.923 786.655 494.4 725.151L679.138 833.144C679.622 840.123 680.071 847.335 680.494 854.858C682.651 893.323 685.159 942.799 688.104 993.159C688.331 997.111 688.559 1001.06 688.798 1005.02C673.734 1006.41 658.912 1009.73 644.694 1014.9L575.452 1040.06L596.918 1050.53C597.344 1050.69 597.24 1051.33 596.784 1051.34L567.046 1052.93C560.354 1053.28 553.935 1055.7 548.672 1059.85L508.431 1087.67C507.236 1088.62 507.404 1090.48 508.75 1091.19L547.568 1111.74C548.366 1112.16 548.386 1113.3 547.604 1113.75L520.111 1129.58C519.324 1130.03 519.482 1131.21 520.36 1131.44L529.236 1133.77C532.251 1134.57 533.86 1137.85 532.642 1140.72L528.524 1150.41C528.144 1151.3 529.115 1152.17 529.96 1151.69L562.975 1133.01C563.724 1132.58 564.656 1133.1 564.686 1133.96L566.571 1189.8C566.626 1191.41 568.391 1192.37 569.767 1191.53L582.442 1183.85C590.119 1179.19 597.519 1174.09 604.607 1168.58L634.199 1145.56L652.563 1113.54C652.782 1113.15 653.371 1113.32 653.351 1113.77L652.639 1130.58C652.595 1131.62 653.735 1132.27 654.604 1131.71L695.608 1105.28V1105.28L698.752 1103.25L702.852 1100.61C703.842 1099.97 704.815 1099.31 705.775 1098.63C706.112 1098.4 706.439 1098.14 706.772 1097.9C707.383 1097.46 707.995 1097.02 708.592 1096.56C708.984 1096.25 709.364 1095.94 709.751 1095.63C710.278 1095.21 710.808 1094.79 711.326 1094.36C711.702 1094.04 712.064 1093.71 712.435 1093.39C712.951 1092.94 713.47 1092.5 713.974 1092.03C714.304 1091.73 714.623 1091.42 714.947 1091.12C715.483 1090.61 716.019 1090.11 716.542 1089.59C716.806 1089.32 717.062 1089.05 717.323 1088.79C717.899 1088.2 718.471 1087.61 719.028 1087C719.214 1086.8 719.392 1086.6 719.575 1086.4C720.207 1085.7 720.831 1084.99 721.44 1084.27C721.53 1084.17 721.618 1084.06 721.707 1083.95C728.007 1076.43 732.996 1067.82 736.363 1058.47L747.012 1028.89L803.548 996.22C816.476 1023.33 825.983 1060.09 827.127 1104.66C829.044 1179.17 810.92 1267.15 775.646 1335.2C773.851 1330 772.074 1324.72 770.316 1319.36C759.25 1285.49 749.199 1248.83 740.848 1210.27C733.258 1175.23 728.422 1137.28 725.068 1097.83C720.29 1102.62 714.999 1106.91 709.288 1110.59L696.702 1118.7C700.188 1159.92 704.111 1194.38 708.558 1213.96C721.287 1270.05 735.063 1317.26 749.208 1357.16C750.86 1361.84 752.522 1366.42 754.192 1370.9C733.699 1400.23 709.17 1423.21 680.94 1435.81C772.14 1448.78 928.502 1274.92 939.027 1190.19C946.275 1131.81 933.527 1113.04 938.002 1069.23C940.404 1045.67 948.264 1019.01 962.159 993.828L1025.47 1029.56L1036.12 1059.14C1036.18 1059.31 1036.25 1059.48 1036.32 1059.65V1059.65C1036.34 1059.7 1036.36 1059.75 1036.38 1059.81C1037 1061.5 1037.68 1063.16 1038.41 1064.81C1038.46 1064.91 1038.5 1065.03 1038.55 1065.14C1038.83 1065.75 1039.12 1066.35 1039.41 1066.95C1039.58 1067.31 1039.75 1067.67 1039.93 1068.03C1040.2 1068.58 1040.48 1069.12 1040.76 1069.66C1040.97 1070.07 1041.19 1070.48 1041.41 1070.88C1041.69 1071.39 1041.97 1071.89 1042.25 1072.39C1042.5 1072.82 1042.75 1073.25 1043.01 1073.68C1043.29 1074.15 1043.57 1074.62 1043.86 1075.09C1044.15 1075.55 1044.45 1076.01 1044.75 1076.47C1045.02 1076.89 1045.29 1077.31 1045.57 1077.73C1045.98 1078.34 1046.41 1078.94 1046.83 1079.53C1047.12 1079.94 1047.41 1080.34 1047.71 1080.74C1048.21 1081.42 1048.73 1082.1 1049.25 1082.76C1049.51 1083.09 1049.77 1083.4 1050.03 1083.72C1050.44 1084.23 1050.86 1084.73 1051.29 1085.23C1051.57 1085.57 1051.87 1085.9 1052.16 1086.23C1052.58 1086.7 1053 1087.17 1053.42 1087.63C1053.73 1087.97 1054.03 1088.29 1054.34 1088.62C1054.78 1089.07 1055.22 1089.52 1055.66 1089.97C1055.97 1090.28 1056.29 1090.6 1056.61 1090.91C1057.07 1091.36 1057.55 1091.81 1058.03 1092.25C1058.34 1092.54 1058.64 1092.82 1058.95 1093.1C1059.54 1093.63 1060.14 1094.15 1060.75 1094.67C1061.17 1095.02 1061.59 1095.37 1062.01 1095.72C1062.54 1096.15 1063.08 1096.59 1063.62 1097.01C1063.62 1097.01 1063.62 1097.01 1063.62 1097.01C1065.56 1098.51 1067.56 1099.94 1069.63 1101.28L1117.88 1132.38C1118.75 1132.94 1119.89 1132.29 1119.85 1131.25L1119.13 1114.44C1119.11 1113.99 1119.7 1113.82 1119.92 1114.21L1138.29 1146.23L1167.88 1169.25C1174.97 1174.76 1182.37 1179.86 1190.04 1184.52L1202.72 1192.2C1204.09 1193.04 1205.86 1192.08 1205.91 1190.47L1207.8 1134.63C1207.83 1133.77 1208.76 1133.25 1209.51 1133.68L1242.53 1152.36C1243.37 1152.84 1244.34 1151.97 1243.96 1151.08L1239.84 1141.39C1238.63 1138.52 1240.24 1135.24 1243.25 1134.44L1252.13 1132.11C1253 1131.88 1253.16 1130.7 1252.37 1130.25L1224.88 1114.42C1224.1 1113.97 1224.12 1112.83 1224.92 1112.41L1263.74 1091.86C1265.08 1091.15 1265.25 1089.29 1264.05 1088.34L1236.68 1066.77C1231.42 1062.62 1225 1060.2 1218.31 1059.85L1188.57 1058.26C1188.11 1058.25 1188.01 1057.61 1188.44 1057.45L1209.94 1049.24C1210.43 1049.05 1210.48 1048.39 1210.03 1048.12L1179.45 1030.41C1177.96 1029.55 1176.27 1029.11 1174.56 1029.14L1159.65 1029.37C1151.5 1029.49 1143.45 1027.53 1136.27 1023.68L1120.27 1015.1C1109.46 1009.3 1097.51 1005.95 1085.26 1005.27L1069.84 1004.01C1070.08 1000.06 1070.31 996.094 1070.54 992.152C1073.45 942.134 1075.94 893.067 1078.09 854.858C1078.68 844.351 1079.32 834.444 1080.04 824.955L1264.69 708.544C1264.74 710.378 1264.85 712.318 1265.03 714.395C1270.81 778.19 1258.02 791.58 1250.11 822.14C1240.29 860.066 1254.25 904.383 1258.77 917.118C1259.07 917.942 1260.27 917.775 1260.34 916.903C1261.28 903.904 1265.68 861.362 1283.23 849.595C1283.74 849.255 1284.42 849.544 1284.5 850.148C1285.07 854.399 1286.33 871.112 1281.58 920.783C1277.05 968.054 1305.9 1030.43 1316.95 1063.75C1317.01 1063.94 1317 1064.14 1316.92 1064.32C1305.57 1090.07 1291.72 1120.63 1280.66 1180.42C1267.85 1249.73 1289.55 1307.33 1290.89 1310.79C1290.93 1310.9 1290.95 1311.01 1290.94 1311.13C1290.63 1314.98 1285.48 1380.11 1286.2 1406.35C1290.74 1528.95 1327.81 1581.78 1336.98 1593.05C1337.51 1593.7 1338.55 1593.2 1338.39 1592.38C1330.14 1550.75 1336.76 1496.42 1350.81 1438.33C1359.84 1400.97 1361.88 1308.42 1336.17 1247.32C1328.75 1229.69 1327.97 1214.07 1328.07 1207.11C1328.08 1206.22 1329.3 1206 1329.62 1206.82C1334.81 1219.93 1354.07 1266.16 1377.64 1291.8C1403.19 1319.6 1407.22 1334.83 1407.39 1345.46C1407.4 1346.27 1408.46 1346.57 1408.88 1345.87C1423.95 1320.84 1437.37 1182.69 1365.79 1073.72C1365.67 1073.54 1365.63 1073.32 1365.68 1073.11C1397.5 933.808 1350.6 825.267 1332.5 772.532C1332.27 771.844 1332.99 771.22 1333.63 771.555C1339.49 774.59 1359.12 786.174 1379.14 813.944C1379.61 814.592 1380.65 814.234 1380.6 813.435C1379.63 794.699 1367.17 767.46 1330.25 746.64C1329.54 746.242 1329.8 745.148 1330.62 745.127C1350.21 744.623 1369.31 758.968 1389.95 773.736C1390.58 774.187 1391.42 773.576 1391.19 772.834C1379.46 734.294 1339.41 723.076 1317.31 721.384C1316.87 721.351 1316.53 720.96 1316.57 720.515C1317.04 714.843 1318.43 709.962 1319.35 707.21C1322 708.278 1324.67 709.28 1327.39 710.178L1327.78 710.31C1328.42 710.52 1329.11 710.271 1329.47 709.708L1339.19 694.412C1346.02 683.658 1357.35 676.57 1370 675.128L1384.37 673.492C1385.92 673.316 1387.37 672.636 1388.49 671.556L1407.63 653.172C1443.9 618.322 1476.92 580.232 1506.27 539.379L1515.68 526.279C1516.1 525.698 1515.59 524.904 1514.89 525.035Z" fill="#2EE52E"/>
<path d="M794.342 386.493C819.322 390.557 836.498 402.46 844.358 409.021C845.31 409.816 845.725 411.081 845.433 412.28C844.481 416.198 843.676 420.374 843.07 424.82C842.88 426.186 841.873 427.305 840.506 427.574C835.569 428.548 829.466 429.232 823.678 428.514C811.014 426.958 795.921 406.692 793.604 387.188C793.558 386.773 793.928 386.426 794.342 386.493ZM854.089 436.268C855.19 403.958 869.565 387.952 874.105 383.676C874.876 382.945 876.072 382.945 876.841 383.676C881.392 387.952 895.756 403.958 896.868 436.268C896.953 438.87 896.384 441.474 895.242 443.821C887.72 459.296 880.47 468.929 877.241 472.862C876.32 473.973 874.628 473.973 873.716 472.862C870.477 468.929 863.228 459.296 855.704 443.821C854.564 441.474 853.994 438.87 854.089 436.268ZM905.516 409.021C913.376 402.46 930.552 390.557 955.542 386.493C955.945 386.426 956.326 386.773 956.27 387.188C953.952 406.692 938.86 426.958 926.196 428.514C920.406 429.232 914.316 428.548 909.366 427.574C908.012 427.305 906.993 426.186 906.802 424.82C906.198 420.374 905.404 416.198 904.452 412.28C904.149 411.081 904.564 409.816 905.516 409.021ZM759.222 379.648C760.476 379.79 761.416 380.854 761.416 382.108V445.578C761.416 532.76 829.142 574.332 829.142 574.332C842.413 543.561 844.504 479.749 844.836 460.35C844.874 458.574 847.154 457.89 848.161 459.353L871.578 493.221C873.469 495.957 877.525 495.957 879.416 493.221L902.834 459.353C903.841 457.89 906.121 458.574 906.158 460.35C906.49 479.749 908.581 543.561 921.853 574.332C921.853 574.332 989.578 532.76 989.578 445.578V382.108C989.578 380.854 990.518 379.79 991.773 379.648C1000.77 378.632 1034.44 373.349 1035.17 351.09C1035.18 350.692 1034.85 350.36 1034.45 350.35C957.933 349.818 960.242 265.638 883.872 250.514C882.865 250.314 881.99 249.717 881.458 248.833L878.082 237.905C877.297 235.362 873.698 235.362 872.913 237.905L869.536 248.833C869.004 249.717 868.13 250.314 867.122 250.514C790.753 265.638 793.061 349.818 716.548 350.35C716.149 350.36 715.817 350.692 715.826 351.09C716.557 373.349 750.225 378.632 759.222 379.648Z" fill="#2EE52E"/>
<path d="M814.537 687.28C814.537 645.288 841.426 609.576 878.936 596.425C881.378 595.569 880.798 591.941 878.209 591.939C878.161 591.939 878.112 591.939 878.064 591.939C810.31 591.939 755.381 646.857 755.381 714.611C755.38 782.42 810.152 837.231 877.961 837.285C938.332 837.335 988.542 793.768 998.816 736.357C999.272 733.813 995.812 732.593 994.533 734.84C978.154 763.611 947.365 783.119 911.998 783.547C858.636 784.192 814.537 740.647 814.537 687.28Z" fill="#2EE52E"/>
<path d="M429.609 537.824C477.176 572.443 499.776 570.38 535.942 595.517C571.682 620.351 607.734 666.387 617.244 723.073C617.357 723.748 618.241 723.929 618.593 723.34C625.024 712.691 660.725 657.439 697.765 677.949C724.392 692.692 736.068 709.416 742.578 723.312C742.757 723.692 743.321 723.541 743.294 723.121C743.118 720.3 743.033 717.46 743.033 714.609C743.033 708.139 743.492 701.771 744.374 695.54C744.457 694.959 744.336 694.367 744.02 693.872C733.437 677.381 716.269 664.624 704.425 658.065C672.03 640.129 638.77 666.531 629.318 675.032C628.72 675.564 627.78 675.375 627.437 674.643C624.264 667.851 614.517 649.107 601.664 629.869C586.282 606.851 560.292 581.524 537.709 564.861C537.273 564.528 537.557 563.835 538.1 563.929C554.429 566.609 587.509 570.172 604.381 570.637C625.5 571.227 673.465 564.776 681.738 563.636C682.442 563.54 683.126 563.929 683.401 564.585C685.777 570.248 698.041 596.079 730.958 614.308C748.249 623.875 765.092 625.404 776.084 625.015C776.274 625.005 776.454 624.92 776.577 624.777C785.517 614.784 795.929 606.129 807.453 599.137C808.089 598.757 807.785 597.788 807.044 597.825C800.594 598.187 785.08 597.901 769.177 589.096C748.913 577.876 713.868 533.084 727.244 503.111C727.538 502.436 726.806 501.781 726.18 502.171C698.488 519.527 633.545 520.344 558.638 481.347C448.59 424.08 332.766 300.153 339.512 195.843C339.558 195.045 338.533 194.684 338.077 195.34C285.75 271.025 361.276 488.092 429.609 537.824Z" fill="#2EE52E"/>
<path d="M1571.35 444.411C1516.19 361.979 1299.13 343.815 1226.34 386.927C1175.72 416.908 1168.67 438.473 1131.28 461.739C1095.44 484.029 1055.84 496.213 993.518 489.999C992.071 489.853 991.093 491.432 991.861 492.665C1002.02 509.001 1020.26 550.676 990.526 573.659C979.842 581.929 957.115 589.048 926.311 588.5C926.026 588.495 925.945 588.877 926.211 588.981C938.81 593.916 950.481 600.691 960.911 608.983C961.363 609.343 961.945 609.501 962.515 609.411C980.615 606.535 997.151 599.512 1007.13 591.708C1038.63 567.084 1027.17 526.681 1023.18 515.053C1022.95 514.416 1023.42 513.751 1024.09 513.741C1031.14 513.637 1050.71 512.735 1073.71 508.497C1100.62 503.539 1132.06 489.992 1156.11 476.027C1156.8 475.628 1157.56 476.407 1157.15 477.091C1148.31 491.312 1134 519.423 1127.02 534.433C1118.62 552.531 1105.83 595.575 1102.55 607.117C1102.27 608.124 1101.34 608.808 1100.3 608.799C1091.31 608.732 1062.56 609.349 1035.02 630.659C1020.21 642.109 1009.74 656.441 1003.95 666.848C1003.68 667.32 1003.65 667.873 1003.84 668.38C1008.7 681.673 1011.53 695.929 1011.95 710.784C1011.96 711.125 1012.4 711.245 1012.57 710.945C1016.52 703.825 1025.22 690.535 1039.93 679.393C1063.48 661.552 1112.55 652.441 1135.85 673.721C1136.61 674.416 1137.82 673.817 1137.74 672.8C1134.99 639.703 1163.77 579.416 1227.13 527.773C1323.32 449.351 1472.74 401.68 1570.37 445.569C1571.1 445.893 1571.79 445.076 1571.35 444.411Z" fill="#2EE52E"/>
</svg>
