<svg xmlns="http://www.w3.org/2000/svg" xmlns:xlink="http://www.w3.org/1999/xlink" version="1.1" x="0px" y="0px" viewBox="0 0 100 125" style="enable-background:new 0 0 100 100;" xml:space="preserve"><style type="text/css">
	.st0{fill:none;}
</style><g><path class="st0" fill="#89cff0" d="M28.76,84.79c-0.13-0.06-0.28-0.13-0.41-0.19h0.37C28.72,84.66,28.74,84.73,28.76,84.79z"/><path class="st0" fill="#89cff0" d="M71.65,84.6c-0.13,0.06-0.28,0.13-0.41,0.19c0.02-0.06,0.04-0.13,0.04-0.19H71.65z"/><path fill="#89cff0" d="M70.72,53.46v8.48h-7.76c-2.95,0-5.34,2.07-5.34,4.61v18.45c-0.11-0.03-0.21-0.06-0.34-0.06H42.72   c-0.12,0-0.22,0.03-0.34,0.06V66.54c0-2.54-2.4-4.61-5.33-4.61h-7.77v-8.48c0-1.37,1.39-2.49,3.1-2.49h35.25   C69.33,50.97,70.72,52.09,70.72,53.46z"/><path fill="#89cff0" d="M33,69.3v17.89c-1.3-0.85-2.71-1.65-4.23-2.4c-0.02-0.06-0.04-0.13-0.04-0.19h-0.37c-1.31-0.62-2.7-1.2-4.17-1.74   c-0.71-0.27-1.43-0.52-2.18-0.76V69.3H33z"/><path fill="#89cff0" d="M78,54.32v12.86H65.88c-0.62,0-1.12,0.48-1.12,1.06v20.12c0,0.14,0.03,0.27,0.09,0.39c-2.03,1.59-3.68,3.35-5,5.25V66.54   c0-1.37,1.39-2.49,3.1-2.49h8.88c0.62,0,1.12-0.48,1.12-1.06v-9.54c0-2.54-2.4-4.61-5.33-4.61H32.38c-2.95,0-5.34,2.07-5.34,4.61   V63c0,0.58,0.5,1.06,1.12,1.06h8.89c1.7,0,3.09,1.12,3.09,2.49V94c-1.31-1.9-2.97-3.65-5-5.25c0.06-0.13,0.09-0.25,0.09-0.39V68.24   c0-0.58-0.5-1.06-1.12-1.06H22V54.32c0-1.6,0.12-3.15,0.36-4.63c0.28-1.81,0.73-3.55,1.3-5.22h18.4c0.62,0,1.12-0.48,1.12-1.06   V26.29c0.66-0.17,1.32-0.33,2-0.45l3.72,18.25c0.1,0.5,0.56,0.86,1.1,0.86s1-0.36,1.1-0.86l3.72-18.25c0.67,0.12,1.34,0.25,2,0.42   v17.14c0,0.58,0.5,1.06,1.12,1.06h18.38c0.58,1.68,1.04,3.42,1.32,5.22C77.88,51.24,78,52.79,78,54.32z"/><path fill="#89cff0" d="M75.48,42.35H59.06v-15.4c3.99,1.4,7.65,3.74,10.71,6.89C72.19,36.32,74.1,39.2,75.48,42.35z"/><path fill="#89cff0" d="M40.94,26.96v15.39H24.49C27.67,35.05,33.65,29.52,40.94,26.96z"/><path fill="#89cff0" d="M78,69.3v12.79c-0.75,0.24-1.48,0.5-2.18,0.76c-1.47,0.54-2.86,1.13-4.17,1.74h-0.37c0,0.06-0.02,0.13-0.04,0.19   c-1.52,0.75-2.93,1.55-4.23,2.4V69.3H78z"/><path fill="#89cff0" d="M56.19,7.9L50,38.29L43.81,7.9c-0.09-0.41,0.03-0.83,0.34-1.18C44.53,6.28,45.18,6,45.88,6h8.24   c0.69,0,1.34,0.28,1.74,0.72C56.16,7.07,56.28,7.49,56.19,7.9z"/></g></svg>