<svg width="1800" height="1800" viewBox="0 0 1800 1800" fill="none" xmlns="http://www.w3.org/2000/svg">
<path d="M913.365 684.744C912.877 684.773 912.472 684.386 912.472 683.897V670.481C912.472 669.865 913.106 669.453 913.669 669.705L946.857 684.586C943.392 684.256 939.866 684.08 936.261 684.08C928.121 684.08 920.508 684.309 913.365 684.744ZM899.761 638.05C893.696 638.05 888.778 632.914 888.778 626.58C888.778 620.245 893.696 615.109 899.761 615.109C905.826 615.109 910.744 620.245 910.744 626.58C910.744 632.914 905.826 638.05 899.761 638.05ZM876.581 1049.99C864.052 1049.99 846.881 1032.87 845.981 991.04C845.441 965.98 845.112 949.049 845.112 899.64C845.112 840.7 844.401 803.929 852.701 784.049C859.412 767.989 876.941 747.169 882.581 747.169C888.232 747.169 889.641 751.4 889.641 777.52L890.641 969.52C890.641 996.34 892.472 1049.99 876.581 1049.99ZM1103.05 797.749C1103.05 797.749 1068.34 784.676 1048.54 778.416C1048.24 778.324 1048.04 778.081 1047.98 777.782C1042.67 750.042 1028.36 726.988 1008.84 710.68C1008.6 710.482 1008.49 710.178 1008.56 709.877C1011.9 694.466 1017.07 666.88 1017.07 666.88C1017.18 666.329 1016.55 665.94 1016.1 666.28C1016.1 666.28 992.605 683.405 980.812 692.989C980.573 693.182 980.254 693.224 979.97 693.104C969.29 688.596 958.432 685.693 946.881 684.588V626.88C946.881 626.269 946.252 625.86 945.692 626.109L924.746 635.441C924.088 635.734 923.39 635.128 923.589 634.436C924.388 631.65 924.821 628.672 924.821 625.58C924.821 609.789 913.601 596.989 899.761 596.989C885.921 596.989 874.701 609.789 874.701 625.58C874.701 628.672 875.134 631.65 875.933 634.436C876.133 635.128 875.434 635.734 874.776 635.441L853.832 626.109C853.272 625.86 852.641 626.269 852.641 626.88V684.398C852.641 685.025 853.296 685.437 853.861 685.165L885.832 669.757C886.396 669.485 887.052 669.897 887.052 670.524V686.838C887.052 687.254 886.745 687.608 886.334 687.674C832.922 696.354 809.028 719.586 774.288 744.061C774.27 744.073 774.253 744.086 774.237 744.1C756.265 758.81 749.65 770.841 747.832 774.74C747.552 775.349 748.012 776.029 748.672 776C755.681 775.72 786.761 775.609 798.261 795.08C811.261 817.08 809.761 856.08 809.761 896.58C809.761 963.74 816.192 1030.9 757.661 1031.57C757.161 1031.58 756.761 1031.98 756.761 1032.47V1036.64C756.761 1037.03 757.001 1037.37 757.372 1037.49C764.417 1039.89 831.566 1063.1 890.829 1096.38C891.1 1096.53 891.268 1096.82 891.268 1097.13C891.464 1224.98 896.312 1246.93 898.761 1246.93C901.146 1246.93 905.808 1226.11 906.229 1106.92C906.232 1106.25 906.969 1105.83 907.537 1106.18C942.341 1127.57 971.809 1152.32 980.572 1178C980.681 1178.35 981.001 1178.58 981.372 1178.58H983.941C984.401 1178.58 984.781 1178.23 984.801 1177.77C985.201 1168.95 988.752 1088.38 988.761 965.234C988.761 964.85 988.505 964.512 988.136 964.41L984.332 963.369C983.792 963.22 983.261 963.62 983.252 964.18C982.701 1003.32 952.001 1069.08 924.261 1069.08C909.261 1069.08 907.261 1062.08 907.261 1045.08C907.261 1028.08 909.221 828.069 910.261 787.08C911.261 747.58 911.261 737.08 932.261 737.08C939.154 737.08 949.034 738.145 958.425 740.96C958.888 741.1 959.142 741.602 958.988 742.061C953.524 758.266 948.732 772.8 948.732 772.8C948.521 773.4 949.261 773.869 949.712 773.44C949.712 773.44 962.54 761.676 975.96 749.158C976.238 748.9 976.657 748.85 976.984 749.045C988.292 755.77 998.536 765.885 1004.58 780.698C1004.78 781.18 1004.5 781.726 1004 781.846C979.884 787.576 951.132 794.92 951.132 794.92C950.532 795.06 950.501 795.9 951.092 796.08C951.092 796.08 985.802 807.974 1009.59 815.389C1009.95 815.502 1010.19 815.849 1010.18 816.23C1009.38 838.518 1002.14 853.758 992.128 863.981C991.778 864.337 991.197 864.313 990.876 863.93C970.805 840.004 945.872 810.089 945.872 810.089C945.432 809.58 944.612 810.049 944.841 810.689C944.841 810.689 958.366 847.996 969.093 877.612C969.253 878.054 969.02 878.542 968.576 878.7C960.546 881.545 952.412 882.809 945.261 883.08C939.266 883.08 934.396 881.957 932.329 881.393C931.79 881.246 931.261 881.657 931.261 882.216V885.653C931.261 885.925 931.385 886.176 931.604 886.336C933.865 887.989 947.17 897.08 966.261 897.08C968.668 897.08 971.64 896.749 974.998 896.056C975.416 895.969 975.841 896.204 975.986 896.605C979.093 905.206 981.326 911.36 981.881 912.869C984.281 919.509 1021.66 941.849 1021.66 941.849C1022.09 942.169 1022.69 941.809 1022.61 941.28C1022.61 941.28 1018.55 896.08 1015.58 893.109C1015 892.516 1011.88 888.881 1007.28 883.432C1006.95 883.04 1007.03 882.448 1007.46 882.166C1026.45 869.746 1044.84 848.837 1049.25 816.921C1049.29 816.598 1049.51 816.33 1049.82 816.236C1071.35 809.68 1103.03 798.9 1103.03 798.9C1103.59 798.72 1103.6 797.94 1103.05 797.749Z" fill="#409FFF"/>
<path d="M901.781 1312.08C900.628 1312.77 899.178 1312.77 898.025 1312.08C702.13 1194.9 632.309 973.268 658.3 636.715C658.426 635.061 659.665 633.704 661.297 633.413C794.984 609.584 883.106 547.42 897.744 536.536C899.03 535.579 900.777 535.579 902.064 536.535C916.712 547.416 1004.93 609.583 1138.62 633.413C1140.25 633.704 1141.49 635.061 1141.62 636.715C1167.61 973.268 1097.68 1194.9 901.781 1312.08ZM1188.06 582.107C1187.87 580.424 1186.54 579.099 1184.85 578.907C1032.5 561.555 919.524 472.643 902.213 458.344C900.872 457.237 898.934 457.237 897.593 458.344C893.553 461.681 884.296 469.087 870.545 478.697C870.465 478.753 870.385 478.809 870.304 478.865C869.498 479.428 868.673 480 867.837 480.577C867.646 480.709 867.454 480.841 867.262 480.973C866.453 481.531 865.63 482.093 864.794 482.663C864.593 482.8 864.388 482.939 864.185 483.076C816.952 515.131 726.514 566.201 614.952 578.907C613.269 579.099 611.933 580.424 611.741 582.107C565.014 991.18 663.977 1238.94 898.03 1378.58C899.181 1379.27 900.625 1379.27 901.776 1378.58C1135.83 1238.94 1234.79 991.18 1188.06 582.107Z" fill="#409FFF"/>
<path d="M985.791 1576.36C951.203 1583.95 921.238 1584.39 900.65 1584.39C880.062 1584.39 850.097 1583.95 815.509 1576.36C814.661 1576.18 813.855 1576.84 813.915 1577.71C815.226 1596.81 837.747 1643.93 900.65 1643.93C963.553 1643.93 986.074 1596.81 987.385 1577.71C987.445 1576.84 986.639 1576.18 985.791 1576.36Z" fill="#409FFF"/>
<path d="M979.894 1527.4C978.482 1524.58 969.166 1523.23 965.107 1523.23C959.599 1523.23 968.423 1534.46 900.651 1534.46C832.783 1534.46 842.778 1523.23 836.195 1523.23C832.136 1523.23 822.82 1524.58 821.408 1527.4C820.352 1529.52 813.466 1546.94 810.066 1555.59C808.924 1558.49 810.322 1561.75 813.196 1562.95C822.682 1566.92 842.862 1573.2 900.651 1573.2C958.44 1573.2 978.62 1566.92 988.106 1562.95C990.98 1561.75 992.378 1558.49 991.236 1555.59C987.836 1546.94 980.95 1529.52 979.894 1527.4Z" fill="#409FFF"/>
<path d="M937.93 1372.7L902.475 1394.85C901.359 1395.55 899.943 1395.55 898.827 1394.85L863.371 1372.7C863.003 1372.47 862.526 1372.73 862.526 1373.17V1424.99C862.526 1473.87 843.616 1494.52 838.6 1502.99C833.483 1511.64 842.231 1523.29 900.651 1523.29C959.07 1523.29 967.819 1511.64 962.702 1502.99C957.686 1494.52 938.776 1473.87 938.776 1424.99V1373.17C938.776 1372.73 938.298 1372.47 937.93 1372.7Z" fill="#409FFF"/>
<path d="M1177.83 1046.63C1174.13 1059.02 1170.15 1071.13 1165.89 1082.94C1210.56 1123.15 1287.75 1197.12 1294.91 1208.98C1295.05 1209.22 1294.8 1209.49 1294.56 1209.37C1274.77 1200.13 1202.99 1137.13 1159.75 1099.27C1154.68 1112.24 1149.23 1124.94 1143.39 1137.34C1193.37 1178.43 1318.65 1274.97 1383.88 1294.36C1384.56 1294.57 1385.16 1293.86 1384.85 1293.22C1350.52 1222.19 1249.83 1108.56 1177.83 1046.63Z" fill="#409FFF"/>
<path d="M717.581 361.009L738.151 380.238C739.801 381.78 741.972 382.64 744.231 382.64H811.592C813.132 382.64 814.381 381.39 814.381 379.849V371.258C814.381 365.238 817.341 359.629 822.301 356.249C833.681 348.509 859.032 344.749 899.811 344.749C940.592 344.749 965.941 348.509 977.311 356.249H977.321C982.281 359.629 985.241 365.238 985.241 371.258V379.849C985.241 381.39 986.491 382.64 988.032 382.64H1055.39C1057.65 382.64 1059.82 381.78 1061.47 380.238L1082.04 361.009C1087.99 355.449 1091.37 347.658 1091.37 339.509V219.409C1091.37 215.049 1089.43 210.909 1086.06 208.129L1069.12 194.12C1066.4 191.878 1062.97 190.689 1059.45 190.769C1037.63 191.289 955.172 193.169 899.811 193.169C844.452 193.169 761.991 191.289 740.172 190.769C736.651 190.689 733.221 191.878 730.501 194.12L713.561 208.129C710.192 210.909 708.252 215.049 708.252 219.409V339.509C708.252 347.658 711.631 355.449 717.581 361.009Z" fill="#409FFF"/>
<path d="M844.133 180.241C863.549 180.499 882.923 180.669 899.81 180.669C917.007 180.669 936.777 180.489 956.546 180.223C957.766 180.205 958.398 178.731 957.547 177.855C945.354 165.296 924.293 157 900.341 157C876.389 157 855.307 165.305 843.13 177.875C842.281 178.752 842.911 180.225 844.133 180.241Z" fill="#409FFF"/>
<path d="M1479.72 340.419C1470.32 349.813 1455.08 349.813 1445.69 340.419C1436.29 331.017 1436.29 315.783 1445.69 306.39C1455.08 296.995 1470.32 296.995 1479.72 306.39C1489.11 315.783 1489.11 331.017 1479.72 340.419ZM1495.05 291.05C1477.19 273.179 1448.22 273.179 1430.35 291.05C1419.31 302.089 1415.1 317.362 1417.7 331.638L1406.5 335.371C1404.4 336.073 1402.89 337.926 1402.62 340.129L1401.91 346.082C1401.74 347.507 1401.08 348.83 1400.05 349.829L1284.33 461.885C1283.23 462.955 1281.69 463.459 1280.17 463.255L1269.36 461.802C1267.76 461.587 1266.15 462.131 1265.01 463.273L1261.25 467.033C1206.76 425.826 1147.03 411.577 1134.75 408.978C1133.57 408.729 1132.47 409.63 1132.47 410.835V465.087C1132.47 465.623 1132.7 466.134 1133.09 466.494L1146.51 478.619C1146.86 478.935 1147.31 479.109 1147.78 479.109H1157.1C1158.06 479.109 1158.86 478.401 1158.98 477.453C1159.63 472.527 1162.75 458.67 1177.17 464.519C1202.37 474.739 1197.88 508.29 1182.82 523.339C1174.69 531.47 1159.56 545.502 1147.36 556.702C1146.75 557.265 1147.03 558.286 1147.85 558.453C1161.16 561.169 1174.89 563.387 1188.96 564.989C1191.2 565.246 1193.29 565.958 1195.13 567.037C1196.45 567.809 1198.12 567.589 1199.17 566.479L1233.71 529.965C1234.32 529.322 1234.63 528.437 1234.5 527.562C1233.28 519.606 1236.37 510.387 1243.4 503.35C1254.06 492.69 1269.75 491.099 1278.44 499.79C1287.13 508.479 1285.53 524.159 1274.87 534.819C1267.17 542.527 1256.84 545.486 1248.43 543.263C1247.5 543.017 1246.51 543.255 1245.78 543.883L1204.27 579.635C1203.45 580.339 1203.03 581.403 1203.15 582.474C1205.03 599.117 1206.65 615.543 1208.04 631.749C1208.12 632.614 1209.16 632.991 1209.78 632.375C1229.48 612.561 1258.71 587.989 1282.58 587.989C1308.77 587.989 1311.16 613.034 1311.31 620.247C1311.33 621.305 1310.47 622.169 1309.41 622.169H1291.07C1290.02 622.169 1289.17 623.018 1289.17 624.066V634.271C1289.17 634.661 1289.29 635.041 1289.51 635.359L1301.78 652.89C1302.14 653.398 1302.72 653.699 1303.34 653.699H1354.46C1355.55 653.699 1356.43 652.77 1356.35 651.675C1355.52 639.697 1349.55 576.757 1313.87 522.142L1319.66 516.461C1320.93 515.217 1321.47 513.409 1321.1 511.671L1319.18 502.798C1318.81 501.091 1319.35 499.314 1320.62 498.106L1436.04 387.707C1436.93 386.857 1438.05 386.287 1439.27 386.071L1446.65 384.753C1449.02 384.33 1450.87 382.482 1451.29 380.119L1453.43 368.199C1468 371.201 1483.75 367.061 1495.05 355.759C1512.92 337.89 1512.92 308.919 1495.05 291.05Z" fill="#409FFF"/>
<path d="M506.894 1209.37C506.654 1209.49 506.404 1209.22 506.544 1208.98C513.704 1197.12 590.894 1123.15 635.564 1082.94C631.304 1071.13 627.324 1059.02 623.623 1046.63C551.623 1108.56 450.934 1222.19 416.603 1293.22C416.294 1293.86 416.894 1294.57 417.574 1294.36C482.804 1274.97 608.084 1178.43 658.064 1137.34C652.224 1124.94 646.774 1112.24 641.704 1099.27C598.464 1137.13 526.684 1200.13 506.894 1209.37Z" fill="#409FFF"/>
<path d="M354.763 340.419C345.37 349.813 330.136 349.813 320.734 340.419C311.339 331.017 311.339 315.783 320.734 306.39C330.136 296.995 345.37 296.995 354.763 306.39C364.166 315.783 364.166 331.017 354.763 340.419ZM481.275 502.798L479.355 511.671C478.979 513.409 479.522 515.217 480.791 516.461L486.586 522.142C450.902 576.757 444.936 639.697 444.104 651.675C444.028 652.77 444.898 653.699 445.996 653.699H497.115C497.734 653.699 498.314 653.398 498.668 652.89L510.94 635.359C511.163 635.041 511.283 634.661 511.283 634.271V624.066C511.283 623.018 510.434 622.169 509.387 622.169H491.044C489.986 622.169 489.127 621.305 489.148 620.247C489.295 613.034 491.688 587.989 517.872 587.989C541.74 587.989 570.971 612.561 590.676 632.375C591.29 632.991 592.335 632.614 592.41 631.749C593.802 615.543 595.426 599.117 597.299 582.474C597.419 581.403 597.004 580.339 596.188 579.635L554.676 543.883C553.947 543.255 552.956 543.017 552.024 543.263C543.61 545.486 533.282 542.527 525.583 534.819C514.923 524.159 513.323 508.479 522.012 499.79C530.703 491.099 546.392 492.69 557.052 503.35C564.082 510.387 567.171 519.606 565.956 527.562C565.822 528.437 566.131 529.322 566.74 529.965L601.283 566.479C602.332 567.589 604 567.809 605.319 567.037C607.159 565.958 609.25 565.246 611.492 564.989C625.563 563.387 639.288 561.169 652.608 558.453C653.423 558.286 653.707 557.265 653.094 556.702C640.895 545.502 625.763 531.47 617.632 523.339C602.572 508.29 598.083 474.739 623.283 464.519C637.707 458.67 640.826 472.527 641.471 477.453C641.595 478.401 642.396 479.109 643.352 479.109H652.672C653.143 479.109 653.596 478.935 653.944 478.619L667.358 466.494C667.756 466.134 667.983 465.623 667.983 465.087V410.835C667.983 409.63 666.882 408.729 665.703 408.978C653.426 411.577 593.691 425.826 539.206 467.033L535.444 463.273C534.303 462.131 532.695 461.587 531.096 461.802L520.283 463.255C518.759 463.459 517.224 462.955 516.12 461.885L400.404 349.829C399.374 348.83 398.716 347.507 398.546 346.082L397.831 340.129C397.567 337.926 396.056 336.073 393.951 335.371L382.752 331.638C385.352 317.362 381.142 302.089 370.103 291.05C352.232 273.179 323.263 273.179 305.403 291.05C287.532 308.919 287.532 337.89 305.403 355.759C316.704 367.061 332.452 371.201 347.024 368.199L349.163 380.119C349.588 382.482 351.438 384.33 353.8 384.753L361.188 386.071C362.399 386.287 363.52 386.857 364.41 387.707L479.838 498.106C481.1 499.314 481.644 501.091 481.275 502.798Z" fill="#409FFF"/>
<path d="M971.081 387.649C972.141 386.589 972.741 385.149 972.741 383.64V371.26C972.741 369.389 971.83 367.64 970.281 366.58C969.368 365.959 968.106 365.265 966.394 364.547C966.374 364.539 966.354 364.529 966.333 364.52C966.081 364.416 965.818 364.309 965.546 364.204C965.502 364.187 965.46 364.169 965.416 364.152C965.154 364.052 964.881 363.951 964.601 363.848C964.54 363.827 964.48 363.804 964.417 363.783C964.142 363.684 963.856 363.585 963.562 363.487C963.486 363.461 963.41 363.436 963.334 363.411C963.041 363.313 962.738 363.217 962.426 363.12C962.341 363.093 962.253 363.067 962.166 363.04C961.852 362.944 961.53 362.848 961.197 362.752C961.104 362.725 961.006 362.699 960.912 362.671C960.57 362.575 960.224 362.479 959.862 362.383C959.774 362.359 959.68 362.336 959.59 362.312C959.212 362.213 958.829 362.115 958.429 362.016C958.36 361.999 958.286 361.983 958.217 361.965C955.937 361.412 953.298 360.875 950.249 360.372C950.092 360.347 949.938 360.32 949.778 360.293C949.308 360.217 948.818 360.144 948.328 360.069C948.105 360.035 947.886 360.001 947.66 359.968C947.185 359.897 946.696 359.829 946.204 359.763C945.941 359.725 945.682 359.689 945.414 359.653C944.921 359.588 944.414 359.524 943.902 359.46C943.624 359.425 943.344 359.389 943.058 359.356C942.533 359.292 941.997 359.231 941.453 359.169C941.164 359.136 940.873 359.104 940.578 359.072C940.016 359.011 939.441 358.952 938.857 358.892C938.57 358.864 938.281 358.836 937.989 358.807C937.374 358.748 936.75 358.689 936.113 358.632C935.845 358.608 935.57 358.585 935.298 358.561C934.616 358.503 933.924 358.445 933.216 358.389C932.994 358.372 932.768 358.356 932.545 358.339C931.765 358.279 930.976 358.221 930.165 358.165C930.046 358.157 929.925 358.151 929.806 358.143C921.508 357.585 911.624 357.249 899.81 357.249C887.998 357.249 878.116 357.585 869.817 358.143C869.698 358.149 869.576 358.157 869.457 358.165C868.646 358.221 867.858 358.279 867.078 358.339C866.854 358.356 866.628 358.372 866.406 358.389C865.697 358.445 865.006 358.503 864.324 358.561C864.05 358.585 863.778 358.608 863.509 358.632C862.872 358.689 862.249 358.748 861.633 358.807C861.341 358.836 861.052 358.864 860.765 358.892C860.181 358.952 859.606 359.011 859.044 359.072C858.749 359.104 858.458 359.136 858.169 359.169C857.626 359.231 857.089 359.292 856.564 359.356C856.278 359.389 855.998 359.425 855.718 359.46C855.208 359.524 854.701 359.588 854.208 359.653C853.94 359.689 853.681 359.725 853.418 359.763C852.926 359.829 852.437 359.897 851.964 359.968C851.734 360.001 851.516 360.036 851.292 360.069C850.802 360.144 850.314 360.217 849.844 360.293C849.682 360.32 849.53 360.347 849.372 360.372C846.324 360.875 843.684 361.412 841.405 361.965C841.336 361.983 841.262 361.999 841.193 362.016C840.794 362.113 840.412 362.212 840.034 362.311C839.944 362.335 839.849 362.359 839.758 362.383C839.398 362.479 839.053 362.575 838.713 362.671C838.617 362.697 838.518 362.725 838.424 362.752C838.092 362.848 837.77 362.944 837.457 363.04C837.369 363.067 837.281 363.093 837.194 363.12C836.884 363.217 836.582 363.313 836.289 363.411C836.212 363.436 836.134 363.461 836.058 363.487C835.765 363.585 835.48 363.684 835.205 363.783C835.142 363.804 835.082 363.827 835.021 363.848C834.741 363.951 834.468 364.052 834.206 364.152C834.162 364.169 834.12 364.187 834.074 364.204C833.804 364.309 833.541 364.415 833.29 364.52C833.268 364.529 833.246 364.539 833.224 364.548C831.514 365.267 830.254 365.959 829.341 366.58C827.792 367.64 826.881 369.389 826.881 371.26V383.64C826.881 385.149 827.481 386.589 828.541 387.649L845.63 404.74C846.041 405.159 846.041 405.829 845.63 406.24L843.532 408.34C842.361 409.509 841.701 411.1 841.701 412.749V426.12C841.701 427.769 842.361 429.349 843.532 430.52L856.752 443.749C857.852 444.849 858.472 446.329 858.472 447.879V471.949C873.901 461.369 884.55 452.909 889.63 448.709C895.581 443.789 904.221 443.789 910.172 448.709C915.241 452.889 925.821 461.3 941.15 471.82V447.879C941.15 446.329 941.772 444.849 942.87 443.749L956.092 430.52C957.261 429.349 957.921 427.769 957.921 426.12V412.749C957.921 411.1 957.261 409.509 956.092 408.34L953.99 406.24C953.581 405.829 953.581 405.159 953.99 404.74L971.081 387.649Z" fill="#409FFF"/>
</svg>
