<svg width="700" height="700" viewBox="0 0 700 700" fill="none" xmlns="http://www.w3.org/2000/svg">
<path d="M348.56 230.563C334.182 230.563 302.137 283.243 302.137 296.502C302.137 309.761 337.255 362.441 348.56 362.441C359.866 362.441 394.983 306.987 394.983 296.502C394.983 286.017 362.937 230.563 348.56 230.563Z" fill="#FF5533"/>
<path d="M450.058 133.495C448.71 134.56 446.838 134.613 445.389 133.69C419.502 117.198 386.265 106.55 346.921 106.55C300.6 106.55 265.763 119.671 240.653 140.035C239.605 140.885 238.276 141.313 236.933 141.184C229.245 140.444 213.562 137.455 198.369 122.568C193.003 117.312 197.849 159.451 204.177 182.005C204.643 183.664 204.471 185.424 203.718 186.974C190.647 213.849 185.922 244.078 187.895 272.057C191.532 323.623 198.078 352.873 215.448 398.415C215.809 399.356 214.735 400.21 213.907 399.633C184.179 378.964 140.944 324.977 132.23 313.918C131.664 313.198 130.51 313.554 130.443 314.467C129.798 323.223 128.54 353.948 137.897 397.053C152.971 466.487 184.18 540.967 186.544 532.183C188.841 523.655 191.28 457.902 191.418 429.044C191.424 427.895 192.646 427.167 193.653 427.716C206.036 434.478 244.234 459.447 266.948 486.577C289.496 513.511 329.755 616.508 335.51 631.395C335.816 632.185 336.911 632.205 337.259 631.434C338.738 628.154 340.86 619.619 337.215 600.424C318.602 502.397 254.785 399.08 254.785 304.151C254.785 277.124 265.597 177.804 346.921 177.804C413.565 177.804 443.371 252.463 443.371 305.502C443.371 379.886 394.856 474.02 386.65 595.92C385.652 610.764 386.708 622.496 387.508 628.59C387.642 629.616 389.092 629.701 389.344 628.698C394.082 609.923 413.192 537.121 433.158 502.117C451.722 469.571 492.278 440.295 504.439 437.592C513.961 435.488 493.331 530.373 497.449 549.191C497.543 549.617 498.06 549.789 498.395 549.509C503.312 545.404 513.737 534.036 543.627 457.861C575.046 377.797 571.329 318.001 568.29 318.001C565.249 318.001 549.259 336.244 524.597 363.946C504.806 386.176 488.569 395.572 482.927 398.415C482.247 398.757 481.526 398.028 481.874 397.351C498.436 365.268 515.423 310.108 507.818 227.014C506.619 213.906 502.54 200.463 495.81 187.528C494.79 185.565 494.712 183.25 495.571 181.211C500.371 169.819 503.989 157.77 503.989 140.079C503.989 118.007 497.739 88.633 469.08 68.6846C462.043 63.7862 473.191 86.0834 467.729 106.55C464.125 120.053 456.18 128.662 450.058 133.495Z" fill="#FF5533"/>
</svg>
