<svg width="1800" height="1800" viewBox="0 0 1800 1800" fill="none" xmlns="http://www.w3.org/2000/svg">
<path d="M898.247 726.474C885.645 726.474 857.559 772.646 857.559 784.267C857.559 795.888 888.339 842.06 898.247 842.06C908.156 842.06 938.935 793.456 938.935 784.267C938.935 775.078 910.848 726.474 898.247 726.474Z" fill="#FF5533"/>
<path d="M987.206 641.398C986.025 642.331 984.384 642.378 983.114 641.568C960.425 627.114 931.294 617.782 896.81 617.782C856.212 617.782 825.678 629.282 803.67 647.13C802.752 647.875 801.588 648.25 800.41 648.136C793.672 647.488 779.926 644.868 766.61 631.82C761.908 627.214 766.154 664.147 771.701 683.915C772.109 685.368 771.958 686.911 771.298 688.27C759.842 711.824 755.701 738.319 757.43 762.842C760.618 808.038 766.356 833.674 781.58 873.59C781.896 874.415 780.954 875.163 780.229 874.658C754.173 856.542 716.28 809.224 708.642 799.531C708.146 798.9 707.134 799.212 707.076 800.012C706.51 807.687 705.408 834.616 713.609 872.396C726.821 933.252 754.174 998.531 756.246 990.832C758.26 983.358 760.397 925.728 760.518 900.435C760.524 899.428 761.594 898.79 762.477 899.271C773.33 905.198 806.809 927.082 826.717 950.86C846.48 974.467 881.765 1064.74 886.809 1077.79C887.077 1078.48 888.037 1078.5 888.342 1077.82C889.638 1074.95 891.498 1067.47 888.304 1050.64C871.99 964.726 816.057 874.172 816.057 790.971C816.057 767.283 825.533 680.232 896.81 680.232C955.221 680.232 981.345 745.668 981.345 792.155C981.345 857.35 938.824 939.855 931.632 1046.69C930.757 1059.71 931.682 1069.99 932.384 1075.33C932.501 1076.23 933.772 1076.3 933.993 1075.42C938.145 1058.97 954.894 995.16 972.394 964.48C988.665 935.955 1024.21 910.296 1034.87 907.927C1043.21 906.083 1025.13 989.246 1028.74 1005.74C1028.82 1006.11 1029.28 1006.26 1029.57 1006.02C1033.88 1002.42 1043.02 992.456 1069.22 925.692C1096.75 855.519 1093.5 803.11 1090.83 803.11C1088.17 803.11 1074.15 819.099 1052.54 843.379C1035.19 862.863 1020.96 871.098 1016.01 873.59C1015.42 873.89 1014.79 873.251 1015.09 872.658C1029.61 844.538 1044.5 796.192 1037.83 723.363C1036.78 711.875 1033.2 700.092 1027.31 688.755C1026.41 687.035 1026.34 685.006 1027.1 683.219C1031.3 673.234 1034.47 662.674 1034.47 647.168C1034.47 627.823 1029 602.078 1003.88 584.594C997.71 580.3 1007.48 599.843 1002.69 617.782C999.536 629.616 992.572 637.162 987.206 641.398Z" fill="#FF5533"/>
<path d="M1235.1 820.261C1235.1 626.571 1084.9 469.555 899.618 469.555C872.731 469.555 846.07 473.523 821.002 479.785C820.455 479.921 820.014 480.322 819.825 480.853L813.178 499.426C812.898 500.243 812.789 501.109 812.855 501.97L814.234 519.605C814.309 520.561 814.557 521.495 814.966 522.362L818.23 529.281C819.019 530.953 820.907 531.787 822.683 531.267C847.157 524.102 872.957 520.254 899.618 520.254C1056.88 520.254 1184.36 653.523 1184.36 817.921C1184.36 982.317 1056.88 1115.59 899.618 1115.59C742.361 1115.59 614.878 982.317 614.878 817.921C614.878 689.705 692.426 580.433 801.162 538.541C801.933 538.243 802.277 537.347 801.897 536.614L791.103 510.237C790.709 509.274 790.202 508.361 789.593 507.517L779.798 493.954C779.467 493.315 778.702 493.031 778.035 493.302C652.859 544.209 564.141 671.402 564.141 820.261C564.141 1013.95 714.339 1170.97 899.618 1170.97C1084.9 1170.97 1235.1 1013.95 1235.1 820.261Z" fill="#FF5533"/>
<path d="M861.32 458.924C874.366 457.292 887.16 456.469 899.621 456.469C913.05 456.469 926.364 457.26 939.536 458.835C940.32 458.928 940.953 458.215 940.764 457.448L934.854 433.437C930.658 416.407 924.629 399.873 916.886 384.133L896.841 343.404C896.254 342.212 894.566 342.212 893.98 343.404L884.594 362.464C877.817 376.228 872.744 390.757 869.496 405.748L866.074 421.488C865.822 422.671 865.966 423.907 866.49 424.999L874.432 441.433C874.658 441.903 874.568 442.463 874.206 442.832L864.342 452.823C862.885 454.301 861.608 455.936 860.526 457.688C860.166 458.272 860.64 459.009 861.32 458.924Z" fill="#FF5533"/>
<path d="M1022.6 1160.08C999.061 1169.34 974.766 1175.83 949.94 1179.52C949.257 1179.63 948.945 1180.43 949.381 1180.96L968.925 1204.88C969.296 1205.34 969.954 1205.45 970.46 1205.14L992.246 1191.79C994.042 1190.69 996.217 1190.36 998.256 1190.88L1020.38 1196.47C1020.95 1196.62 1021.53 1196.2 1021.57 1195.6L1023.68 1160.87C1023.72 1160.28 1023.14 1159.86 1022.6 1160.08Z" fill="#FF5533"/>
<path d="M829.057 1175.87C806.678 1171.1 784.798 1164.01 763.567 1154.63C763.167 1154.45 762.766 1154.27 762.365 1154.09C761.667 1153.78 760.886 1154.32 760.927 1155.08C764.826 1229.03 788.962 1262.81 793.45 1268.5C793.757 1268.89 794.37 1268.79 794.523 1268.32C796.058 1263.68 797.674 1244.22 812.962 1208.54C818.509 1195.6 824.353 1185.26 829.637 1177.28C829.997 1176.73 829.697 1176.01 829.057 1175.87Z" fill="#FF5533"/>
<path d="M1227.39 950.819C1262.09 934.479 1280.44 914.717 1283.78 910.897C1284.1 910.517 1284.11 909.966 1283.8 909.57L1275.06 898.73C1273.09 896.285 1272.02 893.243 1272.02 890.102V867.166C1272.02 862.982 1273.93 859.027 1277.2 856.421L1283.48 851.422C1283.94 851.042 1284 850.357 1283.6 849.914C1280.32 846.297 1266.37 831.387 1249.34 819.321C1248.85 818.975 1248.17 819.33 1248.18 819.929C1248.18 820.638 1248.18 821.351 1248.18 822.063C1248.18 866.073 1240.74 908.909 1226.04 949.586C1225.74 950.414 1226.59 951.195 1227.39 950.819Z" fill="#FF5533"/>
<path d="M569.476 1056.73C572.102 1053.28 581.985 1043.74 607.137 1051.28C607.561 1051.41 608.013 1051.21 608.184 1050.8C610.068 1046.33 612.724 1039.71 615.414 1032.9C615.662 1032.27 615.581 1031.56 615.201 1031.01C600.524 1009.53 588.165 986.431 578.238 961.905C575.384 954.849 572.749 947.732 570.352 940.543C570.089 939.759 569.238 939.339 568.465 939.631C564.93 940.96 560.688 941.955 555.64 942.248C550.577 942.547 493.386 1054.63 486.03 1069.09C485.697 1069.74 486.238 1070.47 486.952 1070.36L567.148 1058.12C568.077 1057.98 568.908 1057.47 569.476 1056.73Z" fill="#FF5533"/>
<path d="M540.617 393.52C553.848 383.8 574.706 389.712 587.204 406.724C599.695 423.745 599.1 445.413 585.868 455.133C572.63 464.853 551.772 458.933 539.281 441.921C526.781 424.909 527.377 403.24 540.617 393.52ZM607.492 359.279L617.087 342.439C618.531 339.903 621.896 339.235 624.207 341.031L639.739 353.105C640.47 353.675 641.02 354.451 641.327 355.327L649.207 378.043C649.559 379.071 648.737 380.117 647.663 380.019C642.699 379.549 631.058 379.387 625.055 387.085C624.432 387.888 623.205 387.843 622.636 386.995L607.655 364.307C606.663 362.789 606.599 360.849 607.492 359.279ZM388.375 457.219C389.855 457.669 391.047 458.78 391.615 460.224C392.175 461.668 392.048 463.292 391.272 464.628C378.465 486.577 386.236 533.715 389.043 548.172C408.835 547.233 428.735 554.841 444.267 569.453C458.553 582.892 467.263 600.391 469.021 618.667C480.872 610.833 489.807 612.791 492.343 613.612C496.105 614.416 515.14 620.264 518.615 656.012C532.72 645.868 553.108 646.093 567.196 647.908C567.999 645.741 568.82 643.576 569.651 641.419L576.943 622.493C577.25 621.699 576.492 620.913 575.688 621.185C569.119 623.396 555.96 626.356 537.495 610.183C513.706 589.372 517.956 563.045 531.123 544.779C539.832 532.695 545.012 526.747 547.521 524.103C548.515 523.065 550.166 523.047 551.176 524.067L560.364 533.245C560.869 533.76 561.167 534.445 561.195 535.167C561.447 542.252 564.48 581.393 600.3 593.333C600.743 593.477 601.203 593.144 601.203 592.675C601.292 579.119 603.468 574.155 608.603 568.821C608.955 568.452 609.551 568.479 609.867 568.876L628.07 590.96C651.363 560.825 678.916 534.977 709.791 514.193L697.101 498.589C696.677 498.065 696.804 497.289 697.372 496.92C700.937 494.573 712.86 488.103 718.996 501.125C719.303 501.765 720.215 501.793 720.521 501.152C730.007 481.099 718.112 432.733 668.429 447.516C667.589 447.769 666.679 447.489 666.138 446.785C662.708 442.319 650.397 426.244 647.067 422.039C643.033 416.949 650.46 404.629 659.811 404.629C667.239 404.629 674.675 413.492 677.4 417.12C678.087 418.032 679.215 418.492 680.334 418.32C687.762 417.184 715.928 414.629 732.525 437.625C733.003 438.293 734.051 438.004 734.104 437.183C738.654 373.556 720.071 342.149 728.546 332.105C728.798 331.807 728.744 331.337 728.436 331.085C700.107 307.864 666.607 297.313 666.607 286.565C666.607 280.761 672.942 277.413 675.722 276.231C676.272 275.996 676.335 275.239 675.829 274.923C671.796 272.368 657.618 265.031 636.219 271.781C635.38 272.044 634.992 272.991 635.426 273.749C637.871 278.009 643.601 290.996 629.252 300.247C626.707 301.899 623.558 302.332 620.651 301.447L618.45 300.769C611.635 298.695 604.216 300.572 599.216 305.652L595.219 309.723C594.362 310.589 593.973 311.808 594.117 313.027C594.524 316.339 594.307 323.441 586.447 328.368C586.095 328.585 585.643 328.413 585.518 328.025C584.967 326.284 582.719 322.123 573.559 319.668C570.996 318.992 568.721 317.493 567.079 315.409L564.217 311.753C563.857 311.293 563.858 310.661 564.174 310.175C571.04 299.552 562.639 283.965 556.176 281.249C545.563 276.791 527.09 282.313 527.09 282.313C527.09 282.313 508.191 269.787 464.447 277.639C437.317 302.909 442.995 346.653 442.995 346.653C442.995 346.653 433.78 359.829 433.229 371.499C432.805 380.424 445.756 390.189 449.365 390.189C451.46 390.189 453.635 389.044 455.079 388.077C455.953 387.5 457.146 387.933 457.443 388.944L464.411 412.12C465.141 414.531 467.081 416.371 469.528 416.967L471.866 417.536C472.57 417.707 472.704 418.645 472.081 419.016C464.627 423.375 434.755 440.576 423.455 442.427C405.305 445.405 380.857 428.916 374.268 411.976C374.043 411.38 373.249 411.263 372.861 411.76C368.736 416.985 363.276 421.777 357.438 423.988C357.907 436.263 363.132 449.457 388.375 457.219Z" fill="#FF5533"/>
<path d="M538.704 752.363C539.281 752.823 540.139 752.489 540.256 751.759L541.881 742.255C546.8 713.501 554.092 685.217 563.676 657.691C548.74 656.021 527.757 656.625 518.289 670.677C517.333 672.104 515.736 672.916 514.084 672.916C513.588 672.916 513.091 672.844 512.595 672.699C510.465 672.04 509.003 670.073 509.003 667.844C509.003 628.107 491.612 623.82 490.285 623.549C489.716 623.495 489.563 623.459 489.067 623.215C488.155 622.917 479.988 620.733 467.74 632.808C466.252 634.28 464.004 634.676 462.091 633.82C460.177 632.961 458.996 631.012 459.112 628.909C460.151 609.84 452.208 590.86 437.308 576.844C422.751 563.144 403.88 556.511 385.559 558.641C382.977 558.939 380.595 557.251 380.017 554.724C379.449 552.207 366.94 496.125 379.792 465.016C353.664 455.152 347.988 438.591 347.329 424.855C342.537 423.717 337.835 420.125 333.728 412.96C333.376 412.345 332.509 412.309 332.077 412.869C312.844 438.239 265.563 469.772 243.072 511.196C242.901 511.504 243.045 511.9 243.388 512.017C269.741 521.26 303.341 525.023 308.856 525.592C309.271 525.637 309.551 526.025 309.451 526.431C307.772 533.452 295.147 586.952 294.785 611.861C294.776 612.412 295.3 612.809 295.832 612.673C341.796 601.583 351.309 671.877 359.188 689.495C359.521 690.225 360.208 690.723 361.001 690.821C384.485 693.98 411.235 709.567 442.363 715.721C463.805 719.972 485.889 716.579 501.819 724.223C514.3 730.216 531.575 746.704 538.704 752.363Z" fill="#FF5533"/>
<path d="M718.904 1182.06C717.731 1181.32 717.397 1179.76 718.164 1178.61L740.672 1144.84C708.119 1127.59 678.517 1105.11 652.444 1077.85C649.565 1074.84 646.74 1071.79 643.969 1068.68L617.211 1101.05C616.308 1102.15 614.711 1102.41 613.519 1101.62C608.375 1098.23 594.268 1090.42 580.388 1095.84C515.851 1121.03 505.607 1155.55 510.788 1175.23C510.968 1175.91 511.924 1175.92 512.115 1175.24C515.128 1164.03 528.035 1150.09 558.972 1151.29C560.469 1151.35 561.391 1152.97 560.668 1154.28C558.692 1157.91 555.605 1164.64 555.083 1171.99C554.992 1173.34 554.324 1174.6 553.223 1175.39L547.763 1179.39C544.161 1182.03 542.772 1186.76 544.432 1190.9C545.904 1194.54 548.007 1198.95 550.732 1202.56C551.924 1204.15 552.059 1206.26 551.201 1208.05C547.059 1216.77 549.081 1236.65 551.481 1245.64C551.995 1247.56 551.355 1249.59 549.856 1250.89L538.576 1260.71C535.263 1263.84 534.74 1268.91 537.329 1272.65L542.149 1279.59C542.88 1280.64 542.799 1282.05 541.951 1283.01C535.245 1290.5 536.436 1305.27 537.023 1309.92C537.159 1311.01 536.987 1312.37 536.003 1312.86C516.888 1322.42 506.184 1350.15 510.679 1350.31C516.564 1350.51 532.52 1354.05 525.02 1394C517.963 1431.68 562.303 1503.97 581.769 1531.01C582.689 1532.29 584.693 1531.6 584.639 1530.03C583.384 1487.63 616.821 1426.67 609.313 1402.5C603.583 1384.04 593.683 1346.89 612.22 1341.05C612.996 1340.8 613.076 1339.73 612.328 1339.39C603.609 1335.45 600.559 1317.32 583.573 1314.15C578.465 1313.2 585.875 1298.56 589.26 1292.56C590.333 1290.66 592.708 1289.92 594.657 1290.89C616.353 1301.76 636.505 1293.31 643.347 1289.73C644.989 1288.86 646.939 1288.83 648.617 1289.6L657.624 1293.75C658.86 1294.31 660.187 1294.59 661.513 1294.59C663.147 1294.59 664.772 1294.16 666.216 1293.31C667.967 1292.29 670.052 1293.97 669.437 1295.9C642.183 1381.08 666.568 1444.48 675.512 1463.35C676.152 1464.71 678.175 1464.22 678.12 1462.72C676.451 1417.15 693.417 1353.39 707 1332.61C707.515 1331.81 708.741 1332.14 708.832 1333.09C710.456 1349.86 720.465 1360.47 724.22 1363.89C724.771 1364.39 725.673 1364.03 725.709 1363.28C726.088 1356.31 728.371 1329.7 741.773 1289.5C765.797 1217.44 728.552 1188.23 718.904 1182.06Z" fill="#FF5533"/>
<path d="M1240.74 1291.01C1241.14 1290.71 1241.68 1290.73 1242.05 1291.07C1243.92 1292.8 1249.19 1298.88 1249.19 1312.49C1249.19 1320.58 1248.58 1331.68 1239.23 1339.76C1238.84 1340.1 1238.25 1340.08 1237.88 1339.72C1235.19 1337.14 1224.52 1327.84 1215.01 1332.81C1214.57 1333.03 1214.02 1332.88 1213.73 1332.46C1212.45 1330.68 1209.53 1325.36 1209.53 1314.4C1209.53 1304.55 1212.89 1299.86 1214.54 1298.16C1214.97 1297.71 1215.71 1297.77 1216.08 1298.29L1220.86 1304.96C1221.2 1305.42 1221.86 1305.51 1222.31 1305.16L1240.74 1291.01ZM1229.36 1391.96C1218.12 1391.96 1210.09 1367.87 1216.75 1361.51C1217.12 1361.15 1217.72 1361.14 1218.1 1361.49C1223.91 1366.7 1230.18 1364.1 1232.06 1363.13C1232.42 1362.95 1232.86 1363 1233.17 1363.25C1244.36 1372.52 1242.53 1391.96 1229.36 1391.96ZM1218.75 1097.86C1205.27 1092.6 1191.57 1100.19 1186.57 1103.48C1185.41 1104.24 1183.86 1104 1182.98 1102.93L1154.96 1069.02C1152.28 1072.01 1149.56 1074.95 1146.79 1077.85C1121.53 1104.27 1092.94 1126.19 1061.57 1143.22L1084.93 1178.25C1085.68 1179.37 1085.36 1180.88 1084.24 1181.6C1074.88 1187.55 1046.58 1222.14 1076.23 1288.12C1092.14 1323.54 1080.01 1348 1077.87 1356.3C1077.74 1356.82 1078.3 1357.26 1078.78 1356.99C1097.34 1346.98 1114.58 1329.8 1117.32 1284.62C1119.07 1255.67 1131.57 1260.81 1141.74 1261.85C1142.83 1261.96 1143.53 1263.06 1143.13 1264.07C1142.29 1266.25 1141.97 1270.09 1145.98 1275.38C1150.8 1281.73 1156.15 1280.09 1158.61 1278.8C1159.54 1278.32 1160.63 1278.32 1161.56 1278.8C1166.18 1281.16 1180.69 1287.3 1200.59 1283.02C1200.99 1282.92 1201.41 1283.08 1201.65 1283.41L1203.97 1286.54C1204.24 1286.9 1204.25 1287.4 1203.99 1287.77C1201.13 1291.77 1186.13 1315.06 1202.84 1343.19C1203.33 1344.02 1203.42 1345 1203.07 1345.87C1201.34 1350.13 1197.29 1363.28 1199.18 1373.49C1201.88 1388.14 1210.01 1402.8 1232.31 1402.8C1253.68 1402.8 1261 1373.25 1250.36 1357.05C1249.56 1355.82 1249.65 1354.21 1250.65 1353.14C1257.61 1345.62 1265.44 1335.04 1265.44 1313.93C1265.44 1296.04 1257.3 1284.74 1253.72 1280.63C1252.79 1279.56 1252.7 1278 1253.54 1276.84L1259.51 1268.66C1262.06 1265.15 1261.55 1260.27 1258.33 1257.37C1254.21 1253.67 1249.23 1249.18 1248.4 1248.46C1246.95 1247.2 1246.32 1245.22 1246.82 1243.36C1249.16 1234.6 1251.13 1215.18 1247.05 1206.76C1246.22 1205.06 1246.41 1203.03 1247.55 1201.52C1250.2 1198.02 1252.24 1193.74 1253.66 1190.19C1255.28 1186.17 1253.92 1181.57 1250.43 1179.01L1245.13 1175.13C1244.07 1174.35 1243.42 1173.14 1243.33 1171.83C1242.81 1164.66 1239.79 1158.1 1237.88 1154.58C1237.19 1153.33 1238.07 1151.77 1239.49 1151.72C1269.59 1150.55 1282.14 1164.09 1285.06 1175C1285.24 1175.65 1286.17 1175.64 1286.34 1174.98C1291.39 1155.86 1281.44 1122.32 1218.75 1097.86Z" fill="#FF5533"/>
<path d="M1557.52 474.51L1471.87 429.801C1471.53 445.865 1467.2 471.361 1434.17 483.734C1438.99 498.047 1438.86 509.698 1433.81 519.247C1424.36 537.117 1400.19 544.426 1364.42 552.558C1370.67 569.642 1367.44 580.626 1363.34 587.015C1357.38 596.257 1346.25 601.735 1330.91 603.062C1341.31 629.966 1340.9 660.669 1321.77 670.063C1319.47 671.191 1316.68 670.425 1315.29 668.277C1309.23 658.999 1290.53 661.797 1279.91 664.297C1265.91 667.591 1251.48 673.638 1244.08 677.599C1250.82 699.801 1257.53 729.159 1257.99 758.969C1258 759.926 1258.96 760.585 1259.85 760.233L1280.94 751.974C1282.79 751.253 1284.9 751.758 1286.22 753.247C1295.86 764.203 1334.32 807.514 1337.85 806.405C1341.34 805.294 1353.77 747.426 1357.03 732.002C1357.42 730.107 1359.5 729.123 1361.22 729.998C1374.78 736.93 1424.24 762.002 1426.61 760.53C1429.1 758.997 1414.65 694.53 1411.8 681.95C1411.54 680.777 1412.35 679.63 1413.55 679.503C1419.96 678.818 1439.69 678.638 1465.8 696.687C1467.07 697.563 1468.76 697.482 1469.93 696.498C1477.28 690.298 1501.78 663.99 1513.25 582.187C1525.29 496.431 1551.63 478.607 1557.52 475.647C1557.98 475.413 1557.98 474.754 1557.52 474.51Z" fill="#FF5533"/>
<path d="M1217.73 406.724C1230.23 389.712 1251.09 383.8 1264.32 393.52C1277.56 403.24 1278.16 424.909 1265.66 441.921C1253.17 458.933 1232.31 464.853 1219.07 455.133C1205.84 445.414 1205.24 423.745 1217.73 406.724ZM1079.78 498.814C1083.35 494.212 1096.26 480.232 1113.37 492.181C1113.96 492.597 1114.11 493.418 1113.68 494.005L1095.33 518.273C1113.7 531.233 1130.9 546.061 1146.79 562.676C1158.28 574.688 1168.88 587.413 1178.55 600.797L1197.37 576.042C1197.96 575.284 1199.12 575.365 1199.6 576.196C1201.92 580.256 1206.74 591.105 1200.31 602.72C1199.96 603.324 1200.48 604.056 1201.16 603.929C1225.81 599.38 1253.25 584.786 1252.14 534.102C1252.1 532.45 1252.57 530.817 1253.46 529.418L1257.91 522.469C1258.38 521.738 1259.42 521.676 1259.97 522.342C1265.48 529.085 1289.56 559.553 1287.31 575.365C1284.84 592.702 1268.3 631.726 1233.04 638.558C1231.5 638.856 1230.61 640.48 1231.23 641.924C1233.09 646.301 1236.84 655.461 1240.95 667.79C1249.4 663.485 1263.57 657.709 1277.59 654.414C1301.66 648.746 1314.07 652.908 1320.46 658.792C1331.2 649.036 1328.67 621.573 1318.76 600.454C1318.02 598.874 1318.14 597.034 1319.08 595.572C1320 594.11 1321.62 593.216 1323.35 593.216C1338.78 593.216 1349.94 589.065 1354.79 581.52C1359.35 574.426 1358.68 563.876 1352.82 551.024C1352.19 549.634 1352.22 548.028 1352.89 546.656C1353.58 545.293 1354.84 544.301 1356.33 543.966C1391.46 536.142 1416.93 529.445 1424.84 514.5C1428.98 506.657 1428.35 496.18 1422.9 482.48C1422.38 481.162 1422.43 479.682 1423.04 478.409C1423.65 477.128 1424.77 476.162 1426.13 475.746C1461.18 464.98 1462.01 439.466 1461.72 424.494L1436.54 411.353C1434.88 410.488 1432.84 411.2 1432.05 412.897C1427.3 423.149 1410.06 454.05 1379.05 441.578L1347.06 428.709C1343.99 427.472 1341.82 424.684 1341.38 421.408L1339.15 404.973C1338.88 402.952 1339.8 400.948 1341.51 399.837L1360.27 387.734C1363.19 385.858 1364.8 382.492 1364.44 379.034L1357.04 307.792C1355.79 295.725 1345.49 286.646 1333.36 286.908L1261.59 288.46C1254.18 288.613 1247.67 293.433 1245.34 300.472L1237.67 323.721C1237.2 325.156 1235.96 326.193 1234.47 326.41L1227.18 327.466C1222.69 328.125 1219.36 331.978 1219.36 336.518V337.213C1219.36 338.765 1218.7 340.245 1217.54 341.284L1213.67 344.766C1212.21 346.076 1209.91 345.75 1208.88 344.072L1188.55 310.986C1186.95 308.388 1183.75 307.277 1180.88 308.324L1107.82 335.173C1104.64 336.337 1102.48 339.316 1102.36 342.7L1099.79 415.17C1099.67 418.393 1101.92 421.218 1105.09 421.841L1143.3 429.277C1145.2 429.648 1145.99 431.94 1144.72 433.401L1142.01 436.516C1140.34 438.437 1137.64 439.141 1135.25 438.238C1123.73 433.889 1089.51 425.369 1078.78 472.154C1076.38 482.642 1077.8 494.212 1078.48 498.481C1078.58 499.113 1079.38 499.32 1079.78 498.814Z" fill="#FF5533"/>
</svg>
