<svg width="700" height="700" viewBox="0 0 700 700" fill="none" xmlns="http://www.w3.org/2000/svg">
<path fill-rule="evenodd" clip-rule="evenodd" d="M147.025 199.102C136.639 205.371 136.735 220.467 147.2 226.603L341.896 340.755C346.894 343.685 353.084 343.685 358.082 340.755L552.778 226.603C563.243 220.467 563.339 205.371 552.953 199.102L358.257 81.5903C353.172 78.5213 346.806 78.5213 341.721 81.5903L147.025 199.102ZM347.161 125.25C317.577 125.25 290.417 146.348 290.417 170.112C290.417 179.812 297.692 184.904 306.179 184.904C317.126 184.904 320.353 177.972 323.802 170.559C327.765 162.043 332.022 152.895 348.616 152.895C363.166 152.895 371.896 160.655 371.896 173.75C371.896 185.056 362.291 192.465 352.22 200.233C341.122 208.794 329.459 217.79 329.459 232.919C329.459 240.679 334.551 249.166 344.979 249.166C356.387 249.166 358.678 243.129 361.16 236.588C362.16 233.952 363.192 231.234 364.864 228.796C367.203 225.36 372.121 221.858 377.85 217.779C391.125 208.325 408.755 195.771 408.755 173.75C408.755 139.558 378.201 125.25 347.161 125.25ZM345.949 264.928C335.036 264.928 326.064 273.9 326.064 284.813C326.064 295.725 335.036 304.697 345.949 304.697C356.861 304.697 365.833 295.725 365.833 284.813C365.833 273.9 356.861 264.928 345.949 264.928Z" fill="#888888"/>
<path fill-rule="evenodd" clip-rule="evenodd" d="M151.046 255.527C143.047 250.861 133 256.631 133 265.892V446.108C133 450.376 135.267 454.322 138.954 456.473L318.954 561.473C326.953 566.14 337 560.369 337 551.108V370.892C337 366.624 334.733 362.678 331.046 360.527L151.046 255.527ZM232.329 334.2C205.318 334.2 180.52 353.462 180.52 375.16C180.52 384.016 187.163 388.666 194.912 388.666C204.907 388.666 207.852 382.336 211.002 375.568C214.62 367.793 218.507 359.44 233.658 359.44C246.942 359.44 254.913 366.525 254.913 378.481C254.913 388.804 246.143 395.568 236.948 402.661C226.816 410.477 216.167 418.691 216.167 432.504C216.167 439.589 220.816 447.338 230.337 447.338C240.752 447.338 242.844 441.826 245.111 435.854C246.024 433.447 246.966 430.966 248.492 428.74C250.628 425.603 255.118 422.406 260.349 418.681C272.469 410.05 288.566 398.587 288.566 378.481C288.566 347.263 260.669 334.2 232.329 334.2ZM231.222 461.73C221.259 461.73 213.067 469.922 213.067 479.885C213.067 489.848 221.259 498.04 231.222 498.04C241.186 498.04 249.378 489.848 249.378 479.885C249.378 469.922 241.186 461.73 231.222 461.73Z" fill="#888888"/>
<path fill-rule="evenodd" clip-rule="evenodd" d="M557.954 255.527C565.953 250.861 576 256.631 576 265.892V446.108C576 450.376 573.733 454.322 570.046 456.473L390.046 561.473C382.047 566.14 372 560.369 372 551.108V370.892C372 366.624 374.267 362.678 377.954 360.527L557.954 255.527ZM471.329 334.2C444.318 334.2 419.52 353.462 419.52 375.16C419.52 384.016 426.163 388.666 433.912 388.666C443.907 388.666 446.852 382.336 450.002 375.568C453.62 367.793 457.507 359.44 472.658 359.44C485.942 359.44 493.913 366.525 493.913 378.481C493.913 388.804 485.143 395.568 475.948 402.661C465.816 410.477 455.167 418.691 455.167 432.504C455.167 439.589 459.816 447.338 469.337 447.338C479.752 447.338 481.844 441.826 484.111 435.854C485.024 433.447 485.966 430.966 487.492 428.74C489.628 425.603 494.118 422.406 499.349 418.681C511.469 410.05 527.566 398.587 527.566 378.481C527.566 347.263 499.669 334.2 471.329 334.2ZM470.222 461.73C460.259 461.73 452.067 469.922 452.067 479.885C452.067 489.848 460.259 498.04 470.222 498.04C480.186 498.04 488.378 489.848 488.378 479.885C488.378 469.922 480.186 461.73 470.222 461.73Z" fill="#888888"/>
</svg>