<?xml version="1.0"?>
<svg width="24" height="24" xmlns="http://www.w3.org/2000/svg" xmlns:svg="http://www.w3.org/2000/svg" enable-background="new 0 0 32 32" version="1.1" xml:space="preserve">
 <g class="layer">
  <title>Layer 1</title>
  <g id="svg_1">
   <path d="m18.06,2.54l-12.21,0c-1.76,0 -3.19,1.46 -3.19,3.25l0,12.42c0,1.79 1.43,3.25 3.19,3.25l12.21,0c1.76,0 3.19,-1.46 3.19,-3.25l0,-12.42c0,-1.79 -1.43,-3.25 -3.19,-3.25zm-10.36,15.74c-1.06,0 -1.91,-0.87 -1.91,-1.95s0.85,-1.95 1.91,-1.95c1.05,0 1.91,0.88 1.91,1.95s-0.87,1.95 -1.91,1.95zm0,-8.66c-1.06,0 -1.91,-0.88 -1.91,-1.95c0,-1.08 0.85,-1.95 1.91,-1.95c1.05,0 1.91,0.87 1.91,1.95c0,1.07 -0.87,1.95 -1.91,1.95zm4.25,4.33c-1.06,0 -1.91,-0.87 -1.91,-1.95c0,-1.08 0.85,-1.95 1.91,-1.95c1.05,0 1.91,0.87 1.91,1.95c0,1.08 -0.86,1.95 -1.91,1.95zm4.25,4.33c-1.05,0 -1.91,-0.87 -1.91,-1.95s0.86,-1.95 1.91,-1.95c1.05,0 1.91,0.88 1.91,1.95s-0.86,1.95 -1.91,1.95zm0,-8.66c-1.05,0 -1.91,-0.88 -1.91,-1.95c0,-1.08 0.86,-1.95 1.91,-1.95c1.05,0 1.91,0.87 1.91,1.95c0,1.07 -0.86,1.95 -1.91,1.95z" fill="#F4BB44" id="svg_2"/>
  </g>
 </g>
</svg>