<svg xmlns="http://www.w3.org/2000/svg" xmlns:xlink="http://www.w3.org/1999/xlink" version="1.1" x="0px" y="0px" viewBox="0 0 32 40" style="enable-background:new 0 0 32 32;" xml:space="preserve"><g><path fill="#F4BB44" d="M23.8798828,4H8.119873C5.8498535,4,4,5.8499756,4,8.1199951v15.7600098C4,26.1499634,5.8498535,28,8.119873,28h15.7600098   C26.1499023,28,28,26.1499634,28,23.8800049V8.1199951C28,5.8499756,26.1499023,4,23.8798828,4z M10.5080566,23.9633789   c-1.3662109,0-2.4714355-1.1054688-2.4714355-2.4714355s1.1052246-2.4713745,2.4714355-2.4713745   c1.3566895,0,2.4711914,1.1054077,2.4711914,2.4713745S11.8647461,23.9633789,10.5080566,23.9633789z M10.5080566,12.9794312   c-1.3662109,0-2.4714355-1.1054077-2.4714355-2.4713745c0-1.3660278,1.1052246-2.4713745,2.4714355-2.4713745   c1.3566895,0,2.4711914,1.1053467,2.4711914,2.4713745C12.979248,11.8740234,11.8647461,12.9794312,10.5080566,12.9794312z    M16,18.4713745c-1.3662109,0-2.4714355-1.1054077-2.4714355-2.4713745c0-1.3660278,1.1052246-2.4713745,2.4714355-2.4713745   c1.3569336,0,2.4711914,1.1053467,2.4711914,2.4713745C18.4711914,17.3659668,17.3569336,18.4713745,16,18.4713745z    M21.4919434,23.9633789c-1.3662109,0-2.4714355-1.1054688-2.4714355-2.4714355s1.1052246-2.4713745,2.4714355-2.4713745   c1.3569336,0,2.4711914,1.1054077,2.4711914,2.4713745S22.848877,23.9633789,21.4919434,23.9633789z M21.4919434,12.9794312   c-1.3662109,0-2.4714355-1.1054077-2.4714355-2.4713745c0-1.3660278,1.1052246-2.4713745,2.4714355-2.4713745   c1.3569336,0,2.4711914,1.1053467,2.4711914,2.4713745C23.9631348,11.8740234,22.848877,12.9794312,21.4919434,12.9794312z"/></g></svg>