<svg width="700" height="700" viewBox="0 0 700 700" fill="none" xmlns="http://www.w3.org/2000/svg">
<path d="M178.559 149.002C178.63 149.07 178.696 149.139 178.766 149.209C179.438 149.874 180.112 150.539 180.789 151.205C180.894 151.309 181.001 151.414 181.106 151.517C181.632 152.036 182.158 152.555 182.682 153.077C183.023 153.416 183.361 153.76 183.7 154.102C184.001 154.405 184.304 154.705 184.602 155.013C185.228 155.653 185.85 156.298 186.463 156.954C186.677 157.181 186.882 157.416 187.094 157.644C187.499 158.086 187.907 158.527 188.303 158.978C188.551 159.259 188.791 159.548 189.037 159.833C189.387 160.243 189.738 160.653 190.082 161.069C190.337 161.384 190.585 161.705 190.836 162.024C191.153 162.427 191.472 162.83 191.779 163.245C192.032 163.584 192.276 163.93 192.519 164.276C192.811 164.686 193.1 165.099 193.38 165.518C193.622 165.882 193.856 166.254 194.091 166.627C194.355 167.046 194.613 167.47 194.865 167.9C195.095 168.292 195.316 168.691 195.535 169.094C195.77 169.524 195.997 169.962 196.221 170.406C196.432 170.827 196.64 171.258 196.838 171.69C197.043 172.137 197.239 172.592 197.428 173.05C197.619 173.506 197.806 173.966 197.984 174.435C198.157 174.898 198.316 175.371 198.476 175.847C198.64 176.342 198.806 176.834 198.956 177.344C199.095 177.82 199.218 178.314 199.343 178.806C199.48 179.341 199.619 179.874 199.737 180.428C199.842 180.918 199.924 181.428 200.015 181.931C200.12 182.519 200.232 183.1 200.316 183.708C200.384 184.195 200.423 184.708 200.478 185.209C200.548 185.865 200.63 186.512 200.674 187.193C200.699 187.571 200.699 187.976 200.715 188.363C200.751 189.168 200.792 189.965 200.792 190.803C200.792 190.944 200.785 191.081 200.785 191.222C200.776 192.657 200.724 194.051 200.639 195.422C200.619 195.75 200.605 196.085 200.58 196.408C200.475 197.8 200.327 199.151 200.15 200.474C200.102 200.827 200.056 201.18 200.004 201.531C199.81 202.823 199.585 204.087 199.327 205.314C199.261 205.638 199.186 205.954 199.116 206.273C198.838 207.51 198.537 208.722 198.202 209.893C192.517 229.695 179.021 240.148 173.582 243.674C172.967 244.075 173.259 245.043 173.992 245.015C205.514 243.86 234.557 222.76 234.557 181.154C234.557 132.329 185.16 107.026 219.941 83.1731C220.458 82.8201 220.344 82.0183 219.736 81.8612C195.651 75.7113 161 77.6314 161 113.626C161 130.573 169.448 139.966 178.559 149.002Z" fill="#A666FF"/>
<path d="M272.544 185.175C271.79 200.45 340.473 195.425 340.473 170.304C340.473 125.084 313.708 115.779 292.039 95.1384C271.244 75.3267 246.692 50.6702 288.124 58.656C288.855 58.7972 289.313 57.8701 288.748 57.385C266.814 38.4502 212.672 47.1648 236.77 92.7263C257.407 131.742 273.752 133.322 272.544 185.175Z" fill="#A666FF"/>
<path d="M288.52 289.984C298.344 299.084 311.803 307.762 324.447 310.666C327.369 311.338 329.439 307.896 327.497 305.612C320.36 297.218 314.459 288.485 308.261 274.769C300.389 257.351 292.438 253.745 281.653 253.745C272.125 253.745 276.462 278.814 288.52 289.984Z" fill="#A666FF"/>
<path d="M464.443 181.155C464.443 222.76 493.487 243.861 525.008 245.016C525.742 245.043 526.033 244.073 525.418 243.675C518.442 239.151 498.208 223.234 498.208 190.802C498.208 151.611 538.001 150.406 538.001 113.627C538.001 77.6323 503.349 75.7099 479.262 81.862C478.656 82.0169 478.543 82.8187 479.06 83.174C513.841 107.024 464.443 132.33 464.443 181.155Z" fill="#A666FF"/>
<path d="M406.965 95.1377C385.297 115.779 358.529 125.083 358.529 170.303C358.529 195.424 427.214 200.449 426.46 185.174C425.256 133.324 441.598 131.741 462.235 92.7256C486.333 47.1641 432.189 38.4494 410.257 57.3843C409.692 57.8717 410.15 58.7965 410.881 58.6552C452.313 50.6718 427.761 75.326 406.965 95.1377Z" fill="#A666FF"/>
<path d="M444.252 224.324C443.117 223.873 441.89 224.75 441.942 225.973C442.151 230.997 441.742 242.227 434.911 250.19C434.305 250.898 434.407 251.991 435.141 252.568C447.345 262.141 446.91 275.308 439.837 288.476C432.496 302.142 417.222 330.279 399.535 333.899C381.848 337.516 396.319 380.524 400.339 394.593C404.072 407.656 393.941 420.027 390.221 422.692C389.777 423.01 389.488 423.486 389.47 424.031C389.253 430.306 386.912 451.735 375.853 463.283C375.576 463.575 375.423 463.939 375.4 464.342C374.71 477.182 353.151 507.341 349.505 507.341C345.856 507.341 324.297 477.182 323.607 464.342C323.584 463.939 323.431 463.575 323.151 463.283C312.095 451.735 309.754 430.306 309.54 424.031C309.521 423.486 309.23 423.01 308.786 422.692C305.066 420.027 294.937 407.656 298.668 394.593C302.688 380.524 317.159 337.516 299.472 333.899C281.788 330.279 266.513 302.142 259.172 288.476C252.095 275.308 251.665 262.141 263.866 252.568C264.602 251.991 264.705 250.898 264.096 250.19C257.265 242.227 256.856 230.997 257.065 225.97C257.117 224.75 255.89 223.873 254.755 224.324C215.713 239.869 201.149 273.407 169.912 341.604C169.42 342.677 170.144 343.95 171.324 344.009C201.928 345.558 223.726 375.467 244.337 398.882C244.64 399.226 245.066 399.409 245.524 399.44C274.702 401.351 307.754 519.493 347.878 651.718C348.366 653.321 350.644 653.321 351.129 651.718C391.253 519.493 424.308 401.351 453.483 399.44C453.943 399.409 454.369 399.226 454.672 398.882C475.283 375.467 497.079 345.558 527.685 344.009C528.865 343.95 529.589 342.677 529.097 341.604C497.858 273.407 483.294 239.871 444.252 224.324Z" fill="#A666FF"/>
<path d="M374.564 310.667C387.208 307.763 400.664 299.082 410.491 289.985C422.549 278.815 426.886 253.744 417.358 253.744C406.571 253.744 398.619 257.352 390.75 274.77C384.552 288.486 378.65 297.217 371.512 305.612C369.569 307.895 371.642 311.339 374.564 310.667Z" fill="#A666FF"/>
</svg>
