<svg width="1800" height="1800" viewBox="0 0 1800 1800" fill="none" xmlns="http://www.w3.org/2000/svg">
<path d="M1208.39 883.838C1205.93 882.964 1199.91 887.397 1197.63 889.674C1194.54 892.765 1206.12 894.442 1168.09 932.476C1130 970.564 1128.98 958.325 1125.28 962.02C1123.01 964.297 1118.57 970.321 1119.45 972.78C1120.1 974.62 1121.72 985.622 1137.33 1001.23C1152.94 1016.84 1197.41 1032.4 1232.71 997.101C1268.01 961.8 1251.12 916.002 1236.84 901.72C1222.56 887.44 1210.23 884.493 1208.39 883.838Z" fill="#A666FF"/>
<path d="M1161.49 925.88C1194.28 893.09 1192.31 881.31 1184.34 879.08C1176.52 876.891 1153.72 875.311 1124.86 846.46L1011.48 733.071C1002.07 732.36 994.45 732.211 989.68 732.211C980.52 732.211 974.173 740.353 974.173 740.353C974.173 740.353 966.333 753.236 970.997 756.924C984.938 766.119 995.724 780.465 1004.64 794.031C1006.64 797.067 1006.27 801.171 1004.94 804.56C1004.27 806.28 1003.24 807.84 1001.96 809.14L1082.07 889.25C1110.93 918.1 1112.5 940.9 1114.69 948.72C1116.92 956.7 1128.71 958.66 1161.49 925.88Z" fill="#A666FF"/>
<path d="M949.068 751.97C948.568 751.61 947.868 751.8 947.599 752.35C947.339 752.89 947.068 753.43 946.808 753.98C921.619 806.53 918.048 867.21 918.048 920.879C918.048 976.9 923.328 993.33 937.199 1019.78C937.388 1020.15 937.329 1020.61 937.039 1020.92C919.409 1039.56 912.819 1102.05 912.819 1227.94C912.819 1334.54 902.799 1458.04 899.568 1495.04C899.459 1496.25 897.699 1496.25 897.588 1495.04C894.359 1458.04 884.339 1334.54 884.339 1227.94C884.339 1102.05 875.789 1039.56 858.119 1020.92C857.829 1020.61 857.769 1020.15 857.969 1019.77C871.869 993.33 879.099 976.9 879.099 920.879C879.099 870.879 876.008 814.8 855.219 764.87C855.039 764.45 854.608 764.21 854.148 764.27C852.939 764.44 851.648 764.53 850.288 764.53C835.988 764.53 815.569 744.33 810.209 738.76C809.639 738.17 808.639 738.48 808.519 739.29C807.559 745.55 806.079 765.72 822.709 782.59C822.889 782.78 822.999 783.02 822.999 783.28C822.988 793.05 822.579 807.85 829.788 815.43C829.959 815.61 830.059 815.84 830.059 816.1C830.068 822.21 830.148 837.27 818.988 844.76C818.499 845.09 818.379 845.74 818.739 846.199C822.579 851.1 841.348 876.28 841.348 900.05C841.348 913.43 829.539 923.42 826.288 925.92C825.848 926.26 825.779 926.89 826.119 927.32C828.628 930.45 837.469 942.39 837.469 955.12C837.469 963.78 829.359 964.97 825.588 965.05C824.818 965.07 824.359 965.92 824.779 966.57C828.239 971.98 838.128 990.62 825.748 1011.56C825.588 1011.84 825.568 1012.18 825.699 1012.47C840.208 1044.09 847.469 1173.72 847.469 1326.06C847.469 1512.05 889.119 1619.53 898.409 1644.88C898.739 1645.79 900.028 1645.74 900.288 1644.82C908.408 1616.71 948.528 1493.96 948.528 1371.24C948.528 1232.54 952.699 1015.31 981.039 983.699C981.389 983.31 981.389 982.69 981.009 982.31C953.839 955.179 954.879 958.57 954.879 907.47C954.879 856.33 951.399 817.71 992.739 800.57C992.888 800.51 993.019 800.42 993.119 800.3C993.368 800.02 993.448 799.61 993.279 799.25C986.008 783.44 967.019 764.65 949.068 751.97Z" fill="#A666FF"/>
<path d="M799.509 525.12C799.55 525.16 799.589 525.2 799.63 525.241C800.024 525.63 800.418 526.02 800.814 526.409C800.876 526.47 800.938 526.532 801 526.592C801.308 526.896 801.616 527.2 801.922 527.505C802.122 527.704 802.32 527.905 802.518 528.105C802.694 528.282 802.872 528.458 803.046 528.638C803.413 529.013 803.777 529.39 804.136 529.774C804.261 529.908 804.381 530.045 804.505 530.178C804.742 530.437 804.981 530.696 805.213 530.96C805.358 531.124 805.498 531.293 805.642 531.46C805.848 531.7 806.053 531.94 806.254 532.184C806.404 532.368 806.549 532.556 806.696 532.742C806.881 532.978 807.068 533.214 807.248 533.457C807.396 533.656 807.538 533.858 807.681 534.061C807.852 534.301 808.021 534.542 808.185 534.788C808.326 535.001 808.464 535.218 808.601 535.437C808.756 535.682 808.906 535.93 809.054 536.182C809.189 536.412 809.318 536.645 809.446 536.881C809.584 537.133 809.717 537.389 809.848 537.649C809.972 537.896 810.093 538.148 810.209 538.401C810.329 538.662 810.444 538.929 810.554 539.197C810.666 539.464 810.776 539.733 810.88 540.008C810.981 540.278 811.074 540.556 811.168 540.834C811.264 541.124 811.361 541.412 811.449 541.71C811.53 541.989 811.602 542.278 811.676 542.566C811.756 542.88 811.837 543.192 811.906 543.516C811.968 543.802 812.016 544.101 812.069 544.396C812.13 544.74 812.196 545.08 812.245 545.436C812.285 545.721 812.308 546.021 812.34 546.314C812.381 546.698 812.429 547.077 812.454 547.476C812.469 547.697 812.469 547.934 812.478 548.161C812.5 548.632 812.524 549.098 812.524 549.589C812.524 549.672 812.52 549.752 812.52 549.834C812.514 550.674 812.484 551.49 812.434 552.293C812.422 552.485 812.414 552.681 812.4 552.87C812.338 553.685 812.252 554.476 812.148 555.25C812.12 555.457 812.093 555.664 812.062 555.869C811.949 556.625 811.817 557.365 811.666 558.084C811.628 558.273 811.584 558.458 811.542 558.645C811.38 559.369 811.204 560.078 811.008 560.764C807.68 572.356 799.78 578.474 796.596 580.538C796.236 580.773 796.406 581.34 796.836 581.324C815.288 580.648 832.289 568.296 832.289 543.941C832.289 515.36 803.373 500.548 823.733 486.585C824.036 486.378 823.969 485.909 823.613 485.817C809.514 482.217 789.23 483.341 789.23 504.412C789.23 514.332 794.176 519.83 799.509 525.12Z" fill="#A666FF"/>
<path d="M854.525 546.295C854.084 555.236 894.289 552.295 894.289 537.589C894.289 511.119 878.621 505.672 865.937 493.589C853.764 481.992 839.392 467.559 863.645 472.233C864.073 472.316 864.341 471.773 864.01 471.489C851.17 460.405 819.477 465.507 833.584 492.177C845.664 515.016 855.232 515.941 854.525 546.295Z" fill="#A666FF"/>
<path d="M863.877 607.647C869.627 612.974 877.506 618.054 884.907 619.754C886.618 620.147 887.83 618.133 886.693 616.795C882.515 611.882 879.061 606.77 875.433 598.741C870.825 588.545 866.17 586.434 859.857 586.434C854.279 586.434 856.818 601.109 863.877 607.647Z" fill="#A666FF"/>
<path d="M966.859 543.941C966.859 568.296 983.861 580.648 1002.31 581.324C1002.74 581.34 1002.91 580.772 1002.55 580.539C998.469 577.891 986.625 568.573 986.625 549.588C986.625 526.647 1009.92 525.941 1009.92 504.412C1009.92 483.341 989.634 482.216 975.534 485.817C975.179 485.908 975.113 486.377 975.415 486.585C995.775 500.547 966.859 515.36 966.859 543.941Z" fill="#A666FF"/>
<path d="M933.213 493.589C920.529 505.671 904.859 511.118 904.859 537.589C904.859 552.294 945.066 555.235 944.625 546.294C943.919 515.942 953.486 515.015 965.566 492.177C979.673 465.506 947.978 460.405 935.139 471.489C934.809 471.774 935.077 472.315 935.505 472.233C959.758 467.559 945.386 481.991 933.213 493.589Z" fill="#A666FF"/>
<path d="M955.039 569.211C954.375 568.947 953.656 569.46 953.687 570.176C953.81 573.118 953.57 579.691 949.571 584.352C949.216 584.767 949.276 585.407 949.706 585.744C956.85 591.348 956.595 599.056 952.455 606.764C948.158 614.764 939.216 631.235 928.863 633.354C918.51 635.471 926.98 660.647 929.334 668.883C931.519 676.53 925.588 683.771 923.411 685.331C923.151 685.518 922.982 685.796 922.971 686.115C922.844 689.788 921.474 702.332 915 709.092C914.838 709.263 914.748 709.476 914.735 709.712C914.331 717.228 901.711 734.883 899.576 734.883C897.44 734.883 884.82 717.228 884.416 709.712C884.403 709.476 884.314 709.263 884.15 709.092C877.678 702.332 876.307 689.788 876.182 686.115C876.171 685.796 876 685.518 875.74 685.331C873.563 683.771 867.634 676.53 869.818 668.883C872.171 660.647 880.642 635.471 870.288 633.354C859.936 631.235 850.995 614.764 846.698 606.764C842.555 599.056 842.303 591.348 849.446 585.744C849.876 585.407 849.936 584.767 849.58 584.352C845.582 579.691 845.342 573.118 845.464 570.175C845.495 569.46 844.776 568.947 844.112 569.211C821.258 578.311 812.732 597.943 794.447 637.864C794.159 638.492 794.583 639.238 795.274 639.272C813.188 640.179 825.948 657.687 838.014 671.394C838.191 671.595 838.44 671.702 838.708 671.72C855.788 672.839 875.136 741.996 898.624 819.398C898.91 820.336 900.243 820.336 900.527 819.398C924.015 741.996 943.364 672.839 960.443 671.72C960.712 671.702 960.962 671.595 961.139 671.394C973.204 657.687 985.963 640.179 1003.88 639.272C1004.57 639.238 1004.99 638.492 1004.71 637.864C986.419 597.943 977.894 578.312 955.039 569.211Z" fill="#A666FF"/>
<path d="M914.246 619.754C921.647 618.054 929.525 612.973 935.277 607.648C942.335 601.109 944.874 586.433 939.297 586.433C932.982 586.433 928.327 588.545 923.721 598.741C920.093 606.77 916.638 611.881 912.459 616.796C911.322 618.132 912.535 620.148 914.246 619.754Z" fill="#A666FF"/>
<path d="M741.733 705.59C753.393 698.834 783.545 683.239 813.409 683.239H829.593C830.446 683.239 830.902 682.232 830.338 681.592L828.918 679.979C827.378 678.239 825.829 676.43 824.258 674.599C821.877 671.835 819.485 669.043 817.065 666.41C816.967 666.303 816.847 666.22 816.714 666.166C810.883 663.746 806.831 660.562 806.198 656.399C806.138 656.02 806.109 655.639 806.109 655.239C805.758 655.359 805.398 655.479 805.049 655.61C721.451 684.055 675.715 733.815 672.635 755.794C672.511 756.672 673.515 757.246 674.223 756.711C719.914 722.283 789.613 719.71 810.058 719.71C825.027 719.71 832.001 726.723 834.714 730.606C835.201 731.3 836.289 731.123 836.486 730.298C838.041 723.776 845.098 721.062 852.795 720.11C853.435 720.031 853.838 719.375 853.613 718.77C851.358 712.722 849.331 707.714 847.526 703.56C847.383 703.234 847.087 703.015 846.734 702.975C839.202 702.123 830.081 701.59 819.049 701.59C786.71 701.59 766.955 702.4 742.435 707.419C741.33 707.644 740.757 706.155 741.733 705.59Z" fill="#A666FF"/>
<path d="M1057.29 707.419C1032.77 702.399 1013.02 701.59 980.684 701.59C969.344 701.59 960.035 702.149 952.384 703.039C952.035 703.079 951.744 703.299 951.595 703.629C949.804 707.75 947.795 712.719 945.564 718.71C945.335 719.319 945.744 719.979 946.395 720.05C954.284 720.93 961.635 723.619 963.244 730.27C963.444 731.109 964.524 731.319 965.015 730.609C967.724 726.73 974.704 719.71 989.675 719.71C1010.13 719.71 1079.81 722.279 1125.51 756.719C1126.22 757.25 1127.22 756.679 1127.09 755.799C1124.45 736.934 1090.38 697.597 1027.9 668.833C1027.85 668.807 1027.8 668.782 1027.74 668.758C1017.37 663.99 1006.22 659.513 994.304 655.47C994.086 655.39 993.855 655.319 993.626 655.239C993.626 655.479 993.615 655.719 993.595 655.95C993.164 660.55 988.635 663.979 982.095 666.55C981.955 666.599 981.824 666.69 981.724 666.799C979.424 669.319 977.144 671.97 974.884 674.599C973.315 676.43 971.764 678.239 970.224 679.979L968.804 681.59C968.244 682.23 968.695 683.239 969.555 683.239H986.324C1016.18 683.239 1046.33 698.829 1058 705.59C1058.97 706.159 1058.4 707.649 1057.29 707.419Z" fill="#A666FF"/>
<path d="M733.515 514.379C733.366 514.559 733.155 514.65 732.935 514.65C722.667 514.65 708.426 529.073 707.722 543.206C707.687 543.927 707.718 544.65 707.762 545.371L708.731 560.934C708.905 563.702 708.597 566.479 707.822 569.142L704.689 579.923C703.363 584.486 703.314 589.373 704.846 593.87C705.883 596.911 707.649 599.993 710.605 602.45C711.035 602.799 711.685 602.69 711.926 602.19C714.886 596.23 717.535 590.09 719.526 585.219C721.615 580.119 724.875 575.579 729.145 572.09C731.725 569.979 734.735 566.759 737.286 562.019C737.565 561.499 738.275 561.399 738.665 561.839C742.495 566.09 747.315 566.29 751.935 566.29C758.725 566.29 762.145 562.398 763.03 561.214C763.189 560.999 763.438 560.879 763.705 560.879H795.222C796.761 560.879 798.139 559.909 798.635 558.451C799.485 555.958 800.026 553.022 800.026 549.59C800.026 543.43 797.515 540.699 791.826 535.109C789.377 532.687 786.562 529.922 784.034 526.53C783.363 525.631 782.295 525.119 781.175 525.119H763.995C763.594 525.119 763.253 524.843 763.166 524.451C762.877 523.143 761.687 520.161 756.866 517.69C756.475 517.49 756.265 517.03 756.435 516.629C758.986 510.41 767.075 508.19 770.605 507.51C771.295 507.37 771.526 506.49 771.006 506.03C766.075 501.71 761.665 501.41 755.165 501.41C743.806 501.41 736.635 510.659 733.515 514.379Z" fill="#A666FF"/>
<path d="M1007.49 535.11C1001.8 540.7 999.289 543.43 999.289 549.59C999.289 553.023 999.83 555.959 1000.68 558.451C1001.18 559.91 1002.55 560.88 1004.09 560.88H1035.61C1035.88 560.88 1036.13 561 1036.29 561.215C1037.17 562.398 1040.59 566.29 1047.38 566.29C1052 566.29 1056.82 566.09 1060.65 561.84C1061.04 561.4 1061.75 561.5 1062.03 562.02C1064.58 566.76 1067.59 569.98 1070.17 572.09C1074.44 575.58 1077.7 580.12 1079.79 585.22C1081.78 590.09 1084.43 596.23 1087.39 602.19C1087.63 602.69 1088.28 602.8 1088.71 602.45C1091.67 599.992 1093.43 596.912 1094.47 593.87C1096 589.372 1095.95 584.486 1094.63 579.923L1091.49 569.143C1090.72 566.48 1090.41 563.703 1090.58 560.935L1091.55 545.371C1091.6 544.651 1091.63 543.928 1091.59 543.207C1090.89 529.072 1076.65 514.65 1066.38 514.65C1066.16 514.65 1065.95 514.56 1065.8 514.38C1062.68 510.66 1055.51 501.41 1044.15 501.41C1037.65 501.41 1033.24 501.71 1028.31 506.03C1027.79 506.49 1028.02 507.37 1028.71 507.51C1032.24 508.19 1040.33 510.41 1042.88 516.63C1043.05 517.03 1042.84 517.49 1042.45 517.69C1037.63 520.162 1036.44 523.143 1036.15 524.452C1036.06 524.844 1035.72 525.12 1035.32 525.12H1018.14C1017.02 525.12 1015.95 525.632 1015.28 526.53C1012.75 529.923 1009.94 532.687 1007.49 535.11Z" fill="#A666FF"/>
<path d="M878.523 275.962V489.082C878.523 490.449 879.029 491.758 879.941 492.774C882.609 495.746 889.07 501.409 899.575 501.409C910.081 501.409 916.542 495.746 919.21 492.774C920.122 491.758 920.627 490.449 920.627 489.082V275.962C920.627 274.54 921.19 273.184 922.163 272.146C924.941 269.19 930.51 261.513 930.51 247.47C930.51 226.284 918.455 212.66 910.002 209.758C908.23 209.15 907.002 207.604 906.553 205.785C905.974 203.432 904.315 201.236 899.575 201.236C894.835 201.236 893.177 203.432 892.598 205.785C892.15 207.604 890.921 209.15 889.149 209.758C880.695 212.66 868.641 226.284 868.641 247.47C868.641 261.513 874.21 269.19 876.987 272.146C877.961 273.184 878.523 274.54 878.523 275.962Z" fill="#A666FF"/>
<path d="M487.255 459.5C489.644 461.889 492.895 463.24 496.275 463.24H516.295C519.675 463.24 522.924 461.889 525.315 459.5L559.437 425.377C560.548 424.265 561.239 422.817 561.453 421.26C563.595 405.677 577.236 382.808 598.324 361.72C617.585 342.449 638.348 329.391 653.668 325.647C655.759 325.136 657.572 323.756 658.424 321.78C658.935 320.593 659.672 319.503 660.604 318.569L693.375 285.8C695.764 283.4 697.104 280.16 697.104 276.78V255.809C697.104 252.431 695.764 249.189 693.375 246.791L603.235 156.66C602.172 155.597 600.729 155 599.227 155H578.045C576.545 155 575.104 155.6 574.045 156.66L427.464 303.24C425.255 305.449 425.255 309.031 427.464 311.24L435.344 319.12C437.357 321.133 437.357 324.397 435.344 326.409L428.715 333.04C426.655 335.1 426.224 338.291 427.664 340.82L433.775 351.569C434.875 353.5 435.364 355.709 435.175 357.931L434.384 367.451C434.164 370.049 433.035 372.48 431.195 374.329L420.635 384.88C418.424 387.091 418.424 390.669 420.635 392.88L487.255 459.5Z" fill="#A666FF"/>
<path d="M665.147 386.02L666.187 384.989C669.187 381.989 669.187 377.129 666.187 374.129L665.538 373.48C664.867 372.81 664.866 371.724 665.534 371.053L667.538 369.04C670.698 365.88 670.698 360.76 667.538 357.6L662.578 352.64C662.047 352.109 661.346 351.749 660.597 351.729C659.741 351.706 658.975 351.337 658.438 350.77C657.907 350.209 657.587 349.46 657.587 348.629C657.587 343.29 651.918 339.86 647.198 342.34C635.007 348.74 621.397 358.88 608.447 371.829C595.338 384.94 585.098 398.729 578.718 411.04C576.527 415.26 579.047 420.38 583.707 421.26L588.307 422.129C590.287 422.5 591.718 424.24 591.698 426.26C591.687 427.389 592.218 428.47 593.027 429.27L595.298 431.54C599.127 435.369 604.467 437.28 609.857 436.749L616.098 436.14C617.338 436.009 618.567 436.45 619.447 437.329L699.519 517.412C701.323 519.214 704.263 519.026 705.889 517.06C711.359 510.44 718.395 505.34 725.69 503.22C726.441 503.002 727.137 502.62 727.673 502.049C732.859 496.545 742.01 488.909 755.167 488.909L761.81 488.91C763.211 488.91 763.913 487.216 762.922 486.224L665.142 388.444C664.471 387.773 664.474 386.686 665.147 386.02Z" fill="#A666FF"/>
<path d="M1043.99 488.91H1044.03C1057.57 488.91 1066.87 496.988 1071.96 502.518C1072.19 502.771 1072.49 502.942 1072.82 503.03C1082.3 505.532 1091.41 513.13 1097.31 522.623C1097.93 523.616 1099.31 523.767 1100.14 522.94L1185.75 437.33C1186.63 436.45 1187.86 436.01 1189.1 436.139L1195.34 436.75C1200.72 437.279 1206.06 435.37 1209.89 431.54L1212.16 429.272C1212.96 428.467 1213.5 427.392 1213.49 426.255C1213.47 424.236 1214.91 422.499 1216.88 422.13L1221.5 421.25C1226.17 420.37 1228.69 415.239 1226.51 411.02C1220.13 398.72 1209.9 384.93 1196.79 371.83C1183.84 358.879 1170.21 348.73 1158.01 342.33C1156.94 341.77 1155.81 341.51 1154.72 341.51C1151 341.51 1147.61 344.5 1147.61 348.63C1147.61 349.459 1147.29 350.21 1146.75 350.77C1146.22 351.33 1145.49 351.69 1144.66 351.73C1143.89 351.77 1143.16 352.099 1142.61 352.639L1137.65 357.599C1134.49 360.759 1134.49 365.882 1137.65 369.04L1139.66 371.05C1140.33 371.72 1140.33 372.808 1139.66 373.479L1139.01 374.13C1136.01 377.128 1136.01 381.99 1139.01 384.99L1140.04 386.02C1140.71 386.691 1140.71 387.779 1140.04 388.45L1042.69 485.795C1041.54 486.944 1042.36 488.91 1043.99 488.91Z" fill="#A666FF"/>
<path d="M1144.59 318.57C1145.52 319.498 1146.25 320.583 1146.76 321.762C1147.61 323.746 1149.43 325.132 1151.53 325.643C1166.85 329.374 1187.63 342.432 1206.91 361.72C1228.02 382.831 1241.67 405.724 1243.79 421.31C1244.01 422.874 1244.7 424.328 1245.81 425.444L1279.87 459.5C1282.27 461.89 1285.51 463.239 1288.89 463.239H1308.91C1312.3 463.239 1315.54 461.89 1317.93 459.5L1404.65 372.79C1406.83 370.599 1408.02 367.619 1407.94 364.53L1407.26 339.779C1407.13 335.23 1405.27 330.91 1402.06 327.69L1232.66 158.17C1230.91 156.41 1228.07 156.399 1226.3 158.139L1221.56 162.819C1220.47 163.89 1218.93 164.34 1217.44 164.02L1201.06 160.47C1199.56 160.15 1198 160.61 1196.92 161.69L1111.82 246.79C1109.42 249.19 1108.08 252.43 1108.08 255.81V276.779C1108.08 280.16 1109.42 283.399 1111.82 285.799L1144.59 318.57Z" fill="#A666FF"/>
<path d="M434.057 595.71C431.468 602.29 403.697 611.939 398.057 614.29C393.177 616.33 394.266 611.33 388.888 604.32C386.968 601.82 386.437 598.51 387.477 595.52C390.137 587.859 396.037 574.32 405.348 571C418.528 566.29 438.048 585.55 434.057 595.71ZM490.548 674.81C493.808 673.59 494.777 673.59 515.937 673.59H732.776C734.812 673.59 736.813 673.038 738.566 672.003C748.478 666.148 755.682 662.39 768.676 656.93C771.3 655.827 773.42 653.774 774.605 651.187L785.414 627.583C785.841 626.651 785.16 625.59 784.134 625.59H517.477C516.817 625.59 516.408 624.87 516.746 624.3C518.597 621.22 522.997 613.05 522.997 604.879C522.997 594.53 503.468 544.879 489.106 530.53C474.757 516.18 440.206 499.47 399.266 499.47C360.868 499.47 323.897 559.939 333.177 578.68C333.286 578.879 333.297 579.11 333.217 579.33C332.357 581.459 327.697 593.859 327.697 610.53C327.697 623.99 334.028 630.619 337.397 633.19C338.028 633.67 337.726 634.65 336.948 634.71L248.817 641.04C248.088 641.09 247.377 641.33 246.766 641.739L244.888 643C242.277 644.73 242.397 648.599 245.106 650.18L252.828 654.67C253.477 655.04 254.206 655.239 254.957 655.239H270.689C275.474 655.239 280.233 657.182 283.097 661.016C283.917 662.115 285.201 662.77 286.566 662.77H334.666C336.137 662.77 337.497 663.52 338.277 664.759C341.577 670.04 351.868 683.939 368.646 683.939C373.186 683.939 375.566 681.37 376.797 678.98C377.166 678.25 378.277 678.47 378.357 679.29C379.297 688.779 383.037 711.41 397.597 720.64C398.217 721.03 399.017 720.5 398.908 719.779C396.677 705.55 402.977 694.67 406.657 689.71C408.028 687.879 410.468 687.25 412.557 688.17C417.508 690.35 426.477 694.89 430.577 700.8C430.908 701.279 431.637 701.279 431.988 700.8C439.988 689.67 440.317 679.37 440.226 676.359C440.206 675.87 440.588 675.47 441.077 675.47H476.257C476.628 675.47 476.957 675.71 477.066 676.07C478.288 680.02 484.246 702.29 463.226 702.29C454.917 702.29 462.977 716.45 467.166 723.02C468.197 724.64 467.917 727.05 466.577 728.419C464.908 730.13 463.057 732.95 462.788 737.19C462.757 737.73 462.226 738.1 461.717 737.93C451.257 734.6 437.028 725.2 456.257 753.279C456.637 753.85 456.246 754.61 455.566 754.619C441.217 755 424.106 742.3 419.928 739.01C419.448 738.64 418.746 738.87 418.588 739.46C417.737 742.59 416.377 751.39 424.157 761C424.408 761.31 424.428 761.77 424.166 762.07C416.637 770.679 440.786 798.739 455.226 803.939C478.757 812.41 482.057 752.65 494.757 742.77C498.028 740.219 500.777 738.199 503.037 736.619C507.566 733.439 508.646 727.18 505.388 722.71C497.968 712.559 487.437 694.379 489.977 675.52C490.028 675.2 490.246 674.93 490.548 674.81Z" fill="#A666FF"/>
<path d="M1364.88 648.239C1355.34 651.419 1354.82 661.819 1338.06 645.059C1332.31 639.319 1328.97 635.29 1327.25 632.319C1325.28 628.919 1325.69 624.649 1328.3 621.73C1335.26 613.95 1350.9 606.479 1358.88 616.819C1368.41 629.179 1370.17 646.47 1364.88 648.239ZM1557.04 648.809L1551.46 643.23C1551.31 643.079 1551.12 642.979 1550.91 642.95L1478 632.239C1471.3 631.259 1464.54 630.77 1457.77 630.77H1421.67C1420.4 630.77 1419.29 629.93 1418.95 628.71L1417.79 624.659C1416.76 621.05 1416.55 617.259 1417.17 613.559C1419.14 601.919 1422.62 575.629 1413.83 575.629C1407.81 575.629 1403.06 574.179 1399.59 572.51C1396.04 570.809 1393.75 567.339 1393.14 563.45C1392.66 560.419 1390.39 556.179 1382.76 552.03C1374.19 547.37 1372.9 542.179 1373.22 538.819C1373.47 536.079 1371.99 533.47 1369.61 532.09C1364.9 529.35 1356.98 525.819 1347.47 525.819C1314.06 525.819 1285.35 531.47 1265.11 545.59C1250.09 556.07 1234.04 589.619 1226.76 606.219C1224.21 612.039 1224.79 618.75 1228.31 624.03C1228.76 624.699 1228.3 625.59 1227.5 625.59H1017.62C1015.39 625.59 1013.9 627.913 1014.84 629.945L1025.09 652.079C1025.94 653.907 1027.44 655.353 1029.3 656.13C1042.92 661.821 1050.69 665.831 1060.75 671.753C1062.79 672.951 1065.11 673.59 1067.47 673.59H1240.17L1248.75 673.67C1249.15 673.67 1249.5 673.91 1249.66 674.279C1250.89 677.309 1257.07 690.919 1271.23 697.59C1287.23 705.119 1287.64 715.609 1293.82 724.879C1300.41 734.77 1313.11 752.179 1329.11 752.179C1343.07 752.179 1361.09 719.47 1366.26 709.499C1366.91 708.25 1368.63 708.07 1369.52 709.17C1371.73 711.919 1375.76 715.939 1380.41 715.939C1398.76 715.939 1399.7 694.77 1399.7 683.939C1399.7 679.339 1402.17 675.93 1405 673.53C1408.56 670.519 1413.1 668.89 1417.77 668.679L1479.26 665.899C1490.82 665.379 1502.31 663.73 1513.55 660.99L1556.58 650.479C1557.33 650.29 1557.59 649.359 1557.04 648.809Z" fill="#A666FF"/>
<path d="M695.276 910.794C686.749 905.254 675.161 896.947 664.948 886.959C655.973 878.186 650.068 871.126 646.193 865.726C645.63 864.942 644.501 864.864 643.833 865.56L642.168 867.299C636.568 873.13 630.488 878.47 623.988 883.259L595.677 905.775C580.654 917.722 566.021 930.148 551.798 943.036L544.038 950.07C542.698 951.279 544.198 953.39 545.778 952.539L586.258 930.739C587.678 929.979 589.158 931.67 588.208 932.979L534.258 1007.5C533.148 1009.03 535.288 1010.82 536.598 1009.44L593.528 949.459C594.788 948.139 596.888 949.75 595.938 951.31L578.788 979.399C577.888 980.89 579.788 982.49 581.098 981.339L633.448 935.359C634.688 934.27 636.528 935.65 635.838 937.139L621.848 967.279C621.098 968.89 623.238 970.259 624.388 968.919L651.008 937.77C652.228 936.35 653.998 935.53 655.868 935.53H665.228C668.378 935.53 671.418 934.379 673.778 932.299L695.446 913.236C696.212 912.563 696.13 911.35 695.276 910.794Z" fill="#A666FF"/>
<path d="M809.337 786.32C795.137 768.469 795.737 748.889 795.977 741.1C795.997 740.4 796.017 739.8 796.017 739.291V733.549C796.027 731.08 793.057 729.84 791.297 731.56L697.027 823.54L692.157 821.48C690.457 820.76 688.497 821.14 687.187 822.449L678.628 831.02C678.277 831.371 677.765 831.505 677.288 831.373L675.907 830.989C674.507 830.591 672.997 830.989 671.977 832.009L654.097 849.9C652.937 851.06 652.628 852.791 653.217 854.251C653.301 854.461 653.341 854.683 653.341 854.904C653.344 855.975 653.805 856.989 654.412 857.871C657.74 862.703 663.379 869.701 672.807 878.92C683.365 889.237 695.789 897.811 703.992 902.999C704.885 903.564 705.912 903.793 706.957 903.951C707.051 903.965 707.145 903.988 707.237 904.02C708.667 904.509 710.287 904.169 711.397 903.06L727.427 887.04C728.527 885.94 728.887 884.3 728.367 882.84L727.935 881.636C727.756 881.135 727.881 880.576 728.257 880.2L740.907 867.549C741.987 866.469 742.447 864.92 742.147 863.429L741.457 860.109L808.937 796.109C810.007 795.091 810.597 793.66 810.557 792.189C810.527 791.28 810.507 790.38 810.497 789.509C810.487 788.34 810.057 787.229 809.337 786.32Z" fill="#A666FF"/>
</svg>
