<svg width="700" height="700" viewBox="0 0 700 700" fill="none" xmlns="http://www.w3.org/2000/svg">
<path d="M337.617 112.755C337.129 112.784 336.724 112.397 336.724 111.908V98.492C336.724 97.876 337.358 97.464 337.921 97.716L371.109 112.597C367.644 112.267 364.118 112.091 360.513 112.091C352.373 112.091 344.76 112.32 337.617 112.755ZM324.013 66.0614C317.948 66.0614 313.03 60.9254 313.03 54.5907C313.03 48.256 317.948 43.12 324.013 43.12C330.078 43.12 334.996 48.256 334.996 54.5907C334.996 60.9254 330.078 66.0614 324.013 66.0614ZM300.833 478C288.304 478 271.133 460.88 270.233 419.051C269.693 393.991 269.364 377.06 269.364 327.651C269.364 268.711 268.653 231.94 276.953 212.06C283.664 196 301.193 175.18 306.833 175.18C312.484 175.18 313.893 179.411 313.893 205.531L314.893 397.531C314.893 424.351 316.724 478 300.833 478ZM527.304 225.76C527.304 225.76 492.592 212.687 472.788 206.427C472.497 206.335 472.288 206.092 472.23 205.793C466.92 178.053 452.617 154.999 433.089 138.691C432.852 138.493 432.742 138.189 432.808 137.888C436.153 122.477 441.324 94.8907 441.324 94.8907C441.433 94.34 440.804 93.9507 440.353 94.2907C440.353 94.2907 416.857 111.416 405.064 121C404.825 121.193 404.506 121.235 404.222 121.115C393.542 116.607 382.684 113.704 371.133 112.599V54.8907C371.133 54.28 370.504 53.8707 369.944 54.12L348.998 63.452C348.34 63.7454 347.642 63.1387 347.841 62.4467C348.64 59.6614 349.073 56.6827 349.073 53.5907C349.073 37.8 337.853 25 324.013 25C310.173 25 298.953 37.8 298.953 53.5907C298.953 56.6827 299.386 59.6614 300.185 62.4467C300.385 63.1387 299.686 63.7454 299.028 63.452L278.084 54.12C277.524 53.8707 276.893 54.28 276.893 54.8907V112.409C276.893 113.036 277.548 113.448 278.113 113.176L310.084 97.768C310.648 97.496 311.304 97.908 311.304 98.5347V114.849C311.304 115.265 310.997 115.619 310.586 115.685C257.174 124.365 233.28 147.597 198.54 172.072C198.522 172.084 198.505 172.097 198.489 172.111C180.517 186.821 173.902 198.852 172.084 202.751C171.804 203.36 172.264 204.04 172.924 204.011C179.933 203.731 211.013 203.62 222.513 223.091C235.513 245.091 234.013 284.091 234.013 324.591C234.013 391.751 240.444 458.911 181.913 459.58C181.413 459.591 181.013 459.991 181.013 460.48V464.651C181.013 465.04 181.253 465.38 181.624 465.5C188.669 467.9 255.818 491.107 315.081 524.389C315.352 524.541 315.52 524.832 315.52 525.143C315.716 652.993 320.564 674.943 323.013 674.943C325.398 674.943 330.06 654.119 330.481 534.931C330.484 534.263 331.221 533.845 331.789 534.195C366.593 555.583 396.061 580.328 404.824 606.011C404.933 606.36 405.253 606.591 405.624 606.591H408.193C408.653 606.591 409.033 606.24 409.053 605.78C409.453 596.96 413.004 516.388 413.013 393.245C413.013 392.861 412.757 392.523 412.388 392.421L408.584 391.38C408.044 391.231 407.513 391.631 407.504 392.191C406.953 431.331 376.253 497.091 348.513 497.091C333.513 497.091 331.513 490.091 331.513 473.091C331.513 456.091 333.473 256.08 334.513 215.091C335.513 175.591 335.513 165.091 356.513 165.091C363.406 165.091 373.286 166.156 382.677 168.971C383.14 169.111 383.394 169.613 383.24 170.072C377.776 186.277 372.984 200.811 372.984 200.811C372.773 201.411 373.513 201.88 373.964 201.451C373.964 201.451 386.792 189.687 400.212 177.169C400.49 176.911 400.909 176.861 401.236 177.056C412.544 183.781 422.788 193.896 428.836 208.709C429.032 209.191 428.752 209.737 428.248 209.857C404.136 215.587 375.384 222.931 375.384 222.931C374.784 223.071 374.753 223.911 375.344 224.091C375.344 224.091 410.054 235.985 433.844 243.4C434.206 243.513 434.445 243.86 434.432 244.241C433.637 266.529 426.393 281.769 416.38 291.992C416.03 292.348 415.449 292.324 415.128 291.941C395.057 268.015 370.124 238.1 370.124 238.1C369.684 237.591 368.864 238.06 369.093 238.7C369.093 238.7 382.618 276.007 393.345 305.623C393.505 306.065 393.272 306.553 392.828 306.711C384.798 309.556 376.664 310.82 369.513 311.091C363.518 311.091 358.648 309.968 356.581 309.404C356.042 309.257 355.513 309.668 355.513 310.227V313.664C355.513 313.936 355.637 314.187 355.856 314.347C358.117 316 371.422 325.091 390.513 325.091C392.92 325.091 395.892 324.76 399.25 324.067C399.668 323.98 400.093 324.215 400.238 324.616C403.345 333.217 405.578 339.371 406.133 340.88C408.533 347.52 445.913 369.86 445.913 369.86C446.344 370.18 446.944 369.82 446.864 369.291C446.864 369.291 442.804 324.091 439.833 321.12C439.249 320.527 436.137 316.892 431.53 311.443C431.2 311.051 431.281 310.459 431.71 310.177C450.701 297.757 469.09 276.848 473.501 244.932C473.546 244.609 473.766 244.341 474.077 244.247C495.602 237.691 527.284 226.911 527.284 226.911C527.844 226.731 527.853 225.951 527.304 225.76Z" fill="#409FFF"/>
</svg>
