<svg xmlns="http://www.w3.org/2000/svg" version="1.1" viewBox="-5.0 -10.0 110.0 135.0">
 <path fill="#7F00FF" d="m80.961 36.719c-0.46094-8.0703-4.5625-16.32-10.699-21.598-5.6484-4.8594-13.121-6.9102-20.461-7.1992-6.1523-0.24219-12.301 1.668-17.07 5.5977-4.1602 3.4219-5.8516 8.2422-8.4805 12.77-0.57812 1-1.2109 1.9688-1.9414 2.8789-0.28125 0.33984-0.57031 0.67969-0.78125 1.0703-0.17969 0.32031-0.28906 0.67188-0.37891 1.0312-0.55859 2.2812 0.64844 4.1016 0.92187 6.2891 0.23047 1.8203-0.39062 2.8789-1.3789 4.3594-0.60156 0.89062-1.0391 1.8711-1.3984 2.8789-1.5898 4.5 3.5898 7.8008 2.4219 12.27-0.5 1.9102-1.9297 3.7109-1.4688 5.6211 0.37891 1.6016 1.9609 2.5898 3.4609 3.2695 2.2617 1.0117 5.3906 2.4297 4.9805 5.4688-0.16016 1.1797-0.69922 2.2812-1 3.4297-0.30078 1.1289-0.30078 2.4805 0.55078 3.2695 1 0.92969 2.6797 0.58984 3.75-0.25 0.96094-0.75 1.6602-1.8398 1.9297-3.0312 0.17969-0.78125 0.17969-1.6016 0.32812-2.3906 0.75-3.7383 2.6797-0.75 3.1992 1.1797 0.67188 2.4219 0.33984 5 0.32813 7.4805 0 2.9219-6.8711 12.602 1.0898 10.738 2.6289-0.60937 5.2695-2.2383 6-4.8398 0.96875-3.4609-1.4219-6.9414-2.4297-10.109-0.69141-2.1289-0.75-4.6094 0.48047-6.4883 1.2305-1.8789 4.0117-2.7812 5.8398-1.4805 1.3008 0.92969 1.7891 2.6797 1.6289 4.2695-0.21875 2.2305-2.7109 5.4883-1.6016 7.75 0.19922 0.39844 0.57031 0.69141 0.94141 0.94922 2.8984 2.0195 1.6406-6.4609 2.6992-7.4688 1.0195-0.98047 2.7305-0.94141 3.7383-1.9297 0.85156-0.82031 0.75-1.9102 0.71094-2.9805-0.10156-2.3906 0.76953-4.6914 2.5586-6.3008 0.39062-0.35156 0.82031-0.66016 1.3281-0.76172 0.48047-0.082032 0.97266 0.039062 1.4531 0.14062 1.8984 0.41016 3.9219 0.62891 5.75-0.011718 1.0586-0.37891 1.9883-1.0195 2.8711-1.7109 7.2188-5.707 10.648-15.109 10.129-24.16zm-54.172 7.7617c-0.48828 0.48047-0.94141 1.0312-1.5391 1.3711-1.0898 0.64063-1.9805 0.058594-2.8281-0.64844-2.6289-2.1797 0.75-3.6914 1.2812-5.8398 0.23828-0.96875 0.12109-1.9805 0.14062-2.9805 0.011719-0.58984 0.17188-1.1992 0.44141-1.8008 1.0391-2.2617 3.7109-4.3203 5.9883-4.25 1.6992 0.050781 3.1602 1.2305 4.1992 2.5781 2.5 3.2812 0.73047 6.1406-2.3906 8.1094-1.793 1.1289-3.7734 1.9922-5.293 3.4609zm9.7227 13.91c-1.2812-0.10156-1.8789-1.3516-3.0586-1.6094-1.2891-0.28125-3.3008 1.2109-4.4688 0.37891-1.8828-1.332 1.0469-4.6797 1.9844-5.6602 2.3516-2.4297 1.9102-5.7695 3.8398-8.1914 0.17188-0.21094 0.37109-0.42188 0.62891-0.48047 0.37891-0.089844 0.76953 0.14062 0.98828 0.46094 0.22266 0.32031 0.30469 0.71094 0.375 1.0898 0.011719 0.058594 0.03125 0.12109 0.039063 0.19141 0.66016 3.3281 1.5586 6.6797 1.9219 10.059 0.23828 2.2812 0.47656 3.9492-2.25 3.7617zm15.168-4.9922c-6.4414 1.3281-9.3008-9.8789-10.051-14.391-0.41016-2.5195 0.35156-5.8086 3.1094-6.6602 1.0312-0.32031 2.1484-0.17969 3.1914 0.12109 0.011718 0.011719 0.019531 0.011719 0.03125 0.011719 6.1289 1.8203 8.8398 8.0312 9.3086 13.91 0.28906 3.5312-2.1289 6.2891-5.5898 7.0078z"/>
</svg>